<?xml version="1.0" encoding="UTF-8" standalone="no"?>
<!DOCTYPE svg PUBLIC "-//W3C//DTD SVG 1.1//EN" "http://www.w3.org/Graphics/SVG/1.1/DTD/svg11.dtd">
<!-- Created with Vectornator (http://vectornator.io/) -->
<svg height="100%" stroke-miterlimit="10" style="fill-rule:nonzero;clip-rule:evenodd;stroke-linecap:round;stroke-linejoin:round;" version="1.1" viewBox="169 70.875 110 139.125" width="100%" xml:space="preserve" xmlns="http://www.w3.org/2000/svg" xmlns:vectornator="http://vectornator.io" xmlns:xlink="http://www.w3.org/1999/xlink">
<defs/>
<g id="Layer-1" vectornator:layerName="Layer 1">
<path d="M237.5 77C215.167 81.6667 203.5 84.5 202.5 85.5C201.5 86.5 201 101.167 201 129.5C201 157.833 200 172.667 198 174C196 175.333 193 176.333 189 177C185 177.667 181.333 178.833 178 180.5C174.667 182.167 172.333 184.167 171 186.5C169.667 188.833 169 191.333 169 194C169 196.667 169.833 199.5 171.5 202.5C173.167 205.5 175 207.5 177 208.5C179 209.5 182 210 186 210C190 210 194 209 198 207C202 205 204.667 202.667 206 200C207.333 197.333 208 183.167 208 157.5C208 131.833 208.833 118.333 210.5 117C212.167 115.667 217.333 114 226 112C234.667 110 240.5 109 243.5 109C246.5 109 250.167 108.333 254.5 107C258.833 105.667 262.333 105 265 105C267.667 105 269.333 105.5 270 106.5C270.667 107.5 271 116.167 271 132.5C271 148.833 270 157.833 268 159.5C266 161.167 261.667 162.833 255 164.5C248.333 166.167 244 168.5 242 171.5C240 174.5 239.167 177.833 239.5 181.5C239.833 185.167 240.667 188 242 190C243.333 192 245 193.5 247 194.5C249 195.5 252.667 195.833 258 195.5C263.333 195.167 267.5 193.833 270.5 191.5C273.5 189.167 275.667 185.333 277 180C278.333 174.667 279 158.5 279 131.5C279 104.5 278.833 87.8333 278.5 81.5C278.167 75.1667 276.833 71.6667 274.5 71C272.167 70.3333 259.833 72.3333 237.5 77ZM250 172C250.667 172 251.333 172 252 172C252 172.667 252 173.333 252 174C252 175.333 251.167 176.333 249.5 177C247.833 177.667 246.667 177.333 246 176C245.333 174.667 245.5 173.667 246.5 173C247.5 172.333 248.667 172 250 172ZM181 186.5C181.667 186.833 181.833 187.667 181.5 189C181.167 190.333 180 191 178 191C177 191 176 191 175 191C175 190.5 175 190 175 189.5C175 188.5 175.833 187.667 177.5 187C179.167 186.333 180.333 186.167 181 186.5Z" fill="#000000" fill-rule="nonzero" opacity="1" stroke="none" vectornator:layerName="Curve 1"/>
</g>
</svg>
