<?xml version="1.0" encoding="UTF-8" standalone="no"?>
<!DOCTYPE svg PUBLIC "-//W3C//DTD SVG 1.1//EN" "http://www.w3.org/Graphics/SVG/1.1/DTD/svg11.dtd">
<!-- Created with Vectornator (http://vectornator.io/) -->
<svg height="100%" stroke-miterlimit="10" style="fill-rule:nonzero;clip-rule:evenodd;stroke-linecap:round;stroke-linejoin:round;" version="1.1" viewBox="127 126.417 709.625 1085.15" width="100%" xml:space="preserve" xmlns="http://www.w3.org/2000/svg" xmlns:vectornator="http://vectornator.io" xmlns:xlink="http://www.w3.org/1999/xlink">
<defs/>
<g id="Layer-1" vectornator:layerName="Layer 1">
<path d="M461 128.5C445.667 130.167 430.833 133 416.5 137C402.167 141 389.167 146.667 377.5 154C365.833 161.333 358.333 166.667 355 170C351.667 173.333 349.167 175.333 347.5 176C345.833 176.667 343 179.333 339 184C335 188.667 311.833 190.333 269.5 189C248.333 188.333 227.167 187.667 206 187C205.667 200.5 205.333 214 205 227.5C204.667 241 204.333 254.5 204 268C192.333 267.5 180.667 267 169 266.5C145.667 265.5 133.167 265.333 131.5 266C129.833 266.667 129 373.333 129 586C129 798.667 128.667 931.667 128 985C127.667 1011.67 127.333 1038.33 127 1065C140.167 1064.83 153.333 1064.67 166.5 1064.5C179.667 1064.33 192.833 1064.17 206 1064C206 1076.83 206 1089.67 206 1102.5C206 1128.17 206.333 1141.33 207 1142C207.667 1142.67 225.667 1143 261 1143C296.333 1143 318.833 1147 328.5 1155C338.167 1163 348.667 1170 360 1176C371.333 1182 377 1185.33 377 1186C377 1186.67 380.333 1188.33 387 1191C393.667 1193.67 404 1197 418 1201C432 1205 443.667 1207.67 453 1209C462.333 1210.33 472 1211.17 482 1211.5C492 1211.83 503.333 1210.83 516 1208.5C528.667 1206.17 541.5 1202.67 554.5 1198C567.5 1193.33 581.167 1186.5 595.5 1177.5C609.833 1168.5 621.167 1160.17 629.5 1152.5C637.833 1144.83 642.833 1140.67 644.5 1140C646.167 1139.33 663.833 1139.83 697.5 1141.5C731.167 1143.17 748.5 1142.33 749.5 1139C750.5 1135.67 751.333 1122.83 752 1100.5C752.667 1078.17 766.333 1067 793 1067C806.333 1067 819.667 1067 833 1067C833.167 969 833.333 871 833.5 773C833.833 577 834.5 445.167 835.5 377.5C836.5 309.833 836.833 275.5 836.5 274.5C836.167 273.5 835.167 272.667 833.5 272C831.833 271.333 825.333 270.833 814 270.5C802.667 270.167 790.167 269.167 776.5 267.5C762.833 265.833 755.667 252.167 755 226.5C754.333 200.833 735.5 188 698.5 188C661.5 188 642.833 187.5 642.5 186.5C642.167 185.5 641.5 185 640.5 185C640 185 639.5 185 639 185C639 184.667 639 184.333 639 184C639 183.333 635 180.167 627 174.5C619 168.833 608 162.167 594 154.5C580 146.833 567.833 141.167 557.5 137.5C547.167 133.833 538.5 131.5 531.5 130.5C524.5 129.5 520.667 128.667 520 128C519.333 127.333 513.167 126.833 501.5 126.5C489.833 126.167 476.333 126.833 461 128.5ZM490 153C498 153 504.833 153.5 510.5 154.5C516.167 155.5 526 158.167 540 162.5C554 166.833 565.667 171.5 575 176.5C584.333 181.5 594 187.833 604 195.5C614 203.167 620 207.333 622 208C624 208.667 625 209.333 625 210C625 210.333 625 210.667 625 211C642.667 211 660.333 211 678 211C713.333 211 731.5 223.333 732.5 248C733.5 272.667 739.847 291.734 785.493 289.612C812.199 288.37 803.667 415.833 803 669.5C802.333 923.167 801.833 1050.33 801.5 1051C801.167 1051.67 789.333 1051.83 766 1051.5C742.667 1051.17 730.167 1063 728.5 1087C726.833 1111 709 1122.33 675 1121C641 1119.67 621 1122 615 1128C609 1134 600.833 1140.67 590.5 1148C580.167 1155.33 571.667 1160.67 565 1164C558.333 1167.33 550.667 1170.5 542 1173.5C533.333 1176.5 523.167 1179.17 511.5 1181.5C499.833 1183.83 486.5 1184.67 471.5 1184C456.5 1183.33 440.5 1180.83 423.5 1176.5C406.5 1172.17 391.833 1167.17 379.5 1161.5C367.167 1155.83 361 1152.67 361 1152C361 1151.33 359 1150 355 1148C351 1146 347.5 1143.67 344.5 1141C341.5 1138.33 339.5 1137 338.5 1137C337.5 1137 336 1135.67 334 1133C332 1130.33 329.333 1127.83 326 1125.5C322.667 1123.17 303.667 1122 269 1122C251.667 1122 234.333 1122 217 1122C217 1110 217 1098 217 1086C217 1074 217 1062 217 1050C205.333 1050 193.667 1050 182 1050C170.333 1050 158.667 1050 147 1050C147.333 922.167 147.667 794.333 148 666.5C148.333 538.667 148.667 410.833 149 283C159.833 283.167 170.667 283.333 181.5 283.5C203.167 283.833 214.333 283.667 215 283C215.667 282.333 216.167 269.833 216.5 245.5C216.667 233.333 216.833 221.167 217 209C237 209.667 257 210.333 277 211C317 212.333 339.667 210.333 345 205C350.333 199.667 359.333 192.667 372 184C384.667 175.333 395.833 169.333 405.5 166C415.167 162.667 429.667 159.667 449 157C468.333 154.333 482 153 490 153ZM458 179.5C442.667 181.167 430 183.5 420 186.5C410 189.5 401 193.333 393 198C385 202.667 375.167 210.5 363.5 221.5C351.833 232.5 328.333 237.333 293 236C275.333 235.333 257.667 234.667 240 234C239.833 246.333 239.667 258.667 239.5 271C239.333 283.333 239.167 295.667 239 308C230.333 307.667 221.667 307.333 213 307C195.667 306.333 184.667 306 180 306C175.333 306 172.833 306.333 172.5 307C172.167 307.667 171.667 427.667 171 667C170.667 786.667 170.333 906.333 170 1026C181.833 1025.83 193.667 1025.67 205.5 1025.5C217.333 1025.33 229.167 1025.17 241 1025C241 1037.17 241 1049.33 241 1061.5C241 1073.67 241 1085.83 241 1098C255.667 1098 270.333 1098 285 1098C314.333 1098 334.167 1102.33 344.5 1111C354.833 1119.67 361.833 1124.83 365.5 1126.5C369.167 1128.17 371.5 1129.67 372.5 1131C373.5 1132.33 375.833 1133.67 379.5 1135C383.167 1136.33 385 1137.33 385 1138C385 1138.67 388.167 1140.33 394.5 1143C400.833 1145.67 408 1148 416 1150C424 1152 428.167 1153.33 428.5 1154C428.833 1154.67 435 1156 447 1158C459 1160 472.167 1160.67 486.5 1160C500.833 1159.33 514.167 1157 526.5 1153C538.833 1149 552.333 1142.67 567 1134C581.667 1125.33 593.333 1116.83 602 1108.5C610.667 1100.17 629.667 1096.5 659 1097.5C688.333 1098.5 703.333 1098.83 704 1098.5C704.667 1098.17 705.5 1086.33 706.5 1063C707.5 1039.67 716.833 1028 734.5 1028C752.167 1028 763.5 1028.33 768.5 1029C773.5 1029.67 776.5 1029.5 777.5 1028.5C778.5 1027.5 779.333 908 780 670C780.667 432 779 312.5 775 311.5C771 310.5 759.167 309.333 739.5 308C719.833 306.667 709.667 294.167 709 270.5C708.333 246.833 692.5 234.833 661.5 234.5C630.5 234.167 609.5 229.5 598.5 220.5C587.5 211.5 576.5 204.167 565.5 198.5C554.5 192.833 543.167 188.167 531.5 184.5C519.833 180.833 508.5 178.667 497.5 178C486.5 177.333 473.333 177.833 458 179.5ZM470.5 200C472.167 200.667 473 201.833 473 203.5C473 205.167 472.5 206.333 471.5 207C470.5 207.667 469 207.333 467 206C466 205.333 465 204.667 464 204C464.667 203.167 465.333 202.333 466 201.5C467.333 199.833 468.833 199.333 470.5 200ZM491 200.5C492.333 200.833 493.167 201.833 493.5 203.5C493.833 205.167 493.5 206.5 492.5 207.5C491.5 208.5 490.333 209 489 209C487.667 209 486.667 208 486 206C485.333 204 485.667 202.5 487 201.5C488.333 200.5 489.667 200.167 491 200.5ZM452 204C454 204.667 454.833 206 454.5 208C454.167 210 453.167 211.167 451.5 211.5C449.833 211.833 448.5 211.5 447.5 210.5C446.5 209.5 446.5 208 447.5 206C448.5 204 450 203.333 452 204ZM504 204C505 204.333 506 204.667 507 205C509 205.667 509.667 207.167 509 209.5C508.667 210.667 508.333 211.833 508 213C507 212.667 506 212.333 505 212C503 211.333 502.333 209.833 503 207.5C503.333 206.333 503.667 205.167 504 204ZM433 209C435 210.333 435.5 211.833 434.5 213.5C433.5 215.167 432 215.667 430 215C428 214.333 427 213.167 427 211.5C427 209.833 427.5 208.667 428.5 208C429.5 207.333 431 207.667 433 209ZM527.5 211C529.167 212.333 530 213.667 530 215C530 216.333 529.333 217.333 528 218C526.667 218.667 525.167 218.333 523.5 217C521.833 215.667 521 214.5 521 213.5C521 212.5 521.667 211.5 523 210.5C524.333 209.5 525.833 209.667 527.5 211ZM414.5 214.5C416.167 215.5 417 216.833 417 218.5C417 220.167 416.667 221.167 416 221.5C415.333 221.833 414.333 222 413 222C411.667 222 410.5 221.5 409.5 220.5C408.5 219.5 408.667 218 410 216C411.333 214 412.833 213.5 414.5 214.5ZM546 222C548 223.333 548.5 224.833 547.5 226.5C546.5 228.167 545 228.667 543 228C541 227.333 540 226.333 540 225C540 223.667 540.5 222.5 541.5 221.5C542.5 220.5 544 220.667 546 222ZM399 223C400 223.667 401 224.333 402 225C401.333 226 400.667 227 400 228C398.667 230 397.167 230.667 395.5 230C393.833 229.333 393 228.167 393 226.5C393 224.833 393.5 223.5 394.5 222.5C395.5 221.5 397 221.667 399 223ZM452 231.5C460.667 235.833 465 239 465 241C465 243 461.667 244.5 455 245.5C448.333 246.5 443.5 248.167 440.5 250.5C437.5 252.833 435.667 255.5 435 258.5C434.333 261.5 434.833 264.167 436.5 266.5C438.167 268.833 442.667 271.833 450 275.5C457.333 279.167 461.667 281 463 281C464.333 281 466.333 278.333 469 273C471.667 267.667 473.833 264.333 475.5 263C477.167 261.667 479.833 262.333 483.5 265C487.167 267.667 487.333 271.833 484 277.5C480.667 283.167 479 286.667 479 288C479 289.333 482.5 292.333 489.5 297C496.5 301.667 501.333 304.333 504 305C506.667 305.667 508.833 305.833 510.5 305.5C512.167 305.167 513.833 303.833 515.5 301.5C517.167 299.167 517.833 295.5 517.5 290.5C517.167 285.5 515.667 281.333 513 278C510.333 274.667 509.333 271.667 510 269C510.333 267.667 510.667 266.333 511 265C512.667 265.5 514.333 266 516 266.5C519.333 267.5 523.167 271 527.5 277C531.833 283 534.167 287.833 534.5 291.5C534.833 295.167 534.667 298.333 534 301C533.333 303.667 531.167 307.667 527.5 313C523.833 318.333 521.167 321.333 519.5 322C517.833 322.667 517 324.333 517 327C517 329.667 515.833 333.333 513.5 338C511.167 342.667 508.667 345 506 345C504.667 345 503.333 345 502 345C502.167 343.5 502.333 342 502.5 340.5C502.833 337.5 502.333 335.167 501 333.5C499.667 331.833 494.167 328.167 484.5 322.5C474.833 316.833 468 313.833 464 313.5C460 313.167 457.333 313.333 456 314C455.333 314.333 454.667 314.667 454 315C453.5 313.333 453 311.667 452.5 310C451.5 306.667 447 302.5 439 297.5C431 292.5 425.333 289.833 422 289.5C418.667 289.167 416.333 289.833 415 291.5C413.667 293.167 412 293.833 410 293.5C408 293.167 407 291.667 407 289C407 286.333 407.833 283.5 409.5 280.5C411.167 277.5 413.167 275.333 415.5 274C417.833 272.667 419 270.5 419 267.5C419 264.5 419.5 261.667 420.5 259C421.5 256.333 423 253.333 425 250C427 246.667 429.167 244 431.5 242C433.833 240 434.667 238.333 434 237C433.333 235.667 434 233.333 436 230C438 226.667 443.333 227.167 452 231.5ZM561.5 230C563.833 230.667 565 231.667 565 233C565 234.333 564.5 235.5 563.5 236.5C562.5 237.5 561 237.5 559 236.5C557 235.5 556.333 234 557 232C557.667 230 559.167 229.333 561.5 230ZM382.5 232.5C384.167 232.833 385 234.333 385 237C385 238.333 385 239.667 385 241C383.667 240.667 382.333 240.333 381 240C378.333 239.333 377 238.333 377 237C377 235.667 377.5 234.5 378.5 233.5C379.5 232.5 380.833 232.167 382.5 232.5ZM448 236C448.667 238 447.833 239.5 445.5 240.5C444.333 241 443.167 241.5 442 242C442.333 242.5 442.667 243 443 243.5C443.333 244 443.667 244.5 444 245C444.667 244.5 445.333 244 446 243.5C447.333 242.5 448.833 242 450.5 242C451.333 242 452.167 242 453 242C453 241.333 453 240.667 453 240C453 238.667 452 237.167 450 235.5C449 234.667 448 233.833 447 233C447.333 234 447.667 235 448 236ZM580 241C582 241 583.167 241.833 583.5 243.5C583.833 245.167 583.667 246.5 583 247.5C582.333 248.5 581 248.833 579 248.5C577 248.167 575.833 247.333 575.5 246C575.167 244.667 575.333 243.5 576 242.5C576.667 241.5 578 241 580 241ZM362.5 246.5C364.833 246.833 367 248.167 369 250.5C371 252.833 372 255.167 372 257.5C372 259.833 370.833 262.333 368.5 265C366.167 267.667 363 268.833 359 268.5C355 268.167 352.333 267 351 265C349.667 263 349 260.833 349 258.5C349 256.167 349.5 254 350.5 252C351.5 250 353.167 248.5 355.5 247.5C357.833 246.5 360.167 246.167 362.5 246.5ZM417 249C419 249.667 419.833 251.167 419.5 253.5C419.333 254.667 419.167 255.833 419 257C417.833 256.833 416.667 256.667 415.5 256.5C413.167 256.167 412 254.833 412 252.5C412 250.167 412.333 248.833 413 248.5C413.667 248.167 415 248.333 417 249ZM257 254C258 254.333 259 254.667 260 255C262 255.667 262.667 257.167 262 259.5C261.667 260.667 261.333 261.833 261 263C260 262.667 259 262.333 258 262C256 261.333 255.333 259.833 256 257.5C256.333 256.333 256.667 255.167 257 254ZM602.5 255C604.833 255 607.167 256 609.5 258C611.833 260 613.167 262.167 613.5 264.5C613.833 266.833 613 269.5 611 272.5C609 275.5 606.167 277 602.5 277C598.833 277 596.167 276.333 594.5 275C592.833 273.667 591.833 271.333 591.5 268C591.167 264.667 591.5 262 592.5 260C593.5 258 594.833 256.667 596.5 256C598.167 255.333 600.167 255 602.5 255ZM278 256.5C280 256.833 281.167 257.833 281.5 259.5C281.833 261.167 281.5 262.5 280.5 263.5C279.5 264.5 278.333 265 277 265C275.667 265 274.667 264.5 274 263.5C273.333 262.5 273.333 261 274 259C274.667 257 276 256.167 278 256.5ZM296 256.5C297 256.667 298 256.833 299 257C298.667 258.333 298.333 259.667 298 261C297.333 263.667 296.333 265 295 265C293.667 265 292.5 264.333 291.5 263C290.5 261.667 290.5 260.167 291.5 258.5C292.5 256.833 294 256.167 296 256.5ZM315 256.5C317 256.833 318.167 257.833 318.5 259.5C318.833 261.167 318.667 262.5 318 263.5C317.333 264.5 316 264.667 314 264C312 263.333 310.833 262.167 310.5 260.5C310.167 258.833 310.333 257.667 311 257C311.667 256.333 313 256.167 315 256.5ZM340 257C342 257.667 342.667 259.167 342 261.5C341.667 262.667 341.333 263.833 341 265C340 264.667 339 264.333 338 264C336 263.333 335 262 335 260C335 258 335.333 256.833 336 256.5C336.667 256.167 338 256.333 340 257ZM678.5 258C680.167 258.667 681.167 260 681.5 262C681.667 263 681.833 264 682 265C680.667 265 679.333 265 678 265C675.333 265 673.833 264.167 673.5 262.5C673.167 260.833 673.5 259.5 674.5 258.5C675.5 257.5 676.833 257.333 678.5 258ZM698 258C700 258.667 701 260 701 262C701 264 700 265.167 698 265.5C696 265.833 694.667 265.667 694 265C693.333 264.333 692.833 263.333 692.5 262C692.167 260.667 692.5 259.5 693.5 258.5C694.5 257.5 696 257.333 698 258ZM627 260.5C629 261.5 629.667 263 629 265C628.333 267 626.833 267.667 624.5 267C622.167 266.333 621 265.167 621 263.5C621 261.833 621.5 260.667 622.5 260C623.5 259.333 625 259.5 627 260.5ZM661.5 259.5C662.667 259.667 663.833 259.833 665 260C664.833 261 664.667 262 664.5 263C664.167 265 662.833 266 660.5 266C658.167 266 656.833 265.333 656.5 264C656.167 262.667 656.333 261.5 657 260.5C657.667 259.5 659.167 259.167 661.5 259.5ZM643.5 261C644.667 261.333 645.833 261.667 647 262C646.667 263 646.333 264 646 265C645.333 267 644 267.833 642 267.5C640 267.167 638.833 266.333 638.5 265C638.167 263.667 638.333 262.5 639 261.5C639.667 260.5 641.167 260.333 643.5 261ZM426.5 274C426.167 276 426.333 277.5 427 278.5C427.333 279 427.667 279.5 428 280C426.5 280.167 425 280.333 423.5 280.5C420.5 280.833 419 281.333 419 282C419 282.333 419 282.667 419 283C419.667 282.833 420.333 282.667 421 282.5C421.667 282.333 422.333 282.167 423 282C423 282.5 423 283 423 283.5C423 284.5 424.167 285.5 426.5 286.5C428.833 287.5 430.167 288.5 430.5 289.5C430.833 290.5 431.667 291 433 291C433.667 291 434.333 291 435 291C434.833 290.5 434.667 290 434.5 289.5C434.333 289 434.167 288.5 434 288C434.5 287.833 435 287.667 435.5 287.5C436.5 287.167 437.667 288 439 290C440.333 292 441.667 293 443 293C444.333 293 445.333 291.667 446 289C446.333 287.667 446.667 286.333 447 285C446.333 284.833 445.667 284.667 445 284.5C444.333 284.333 443.667 284.167 443 284C442.833 284.667 442.667 285.333 442.5 286C442.333 286.667 442.167 287.333 442 288C441.5 287.833 441 287.667 440.5 287.5C439.5 287.167 438.833 285.667 438.5 283C438.167 280.333 437.167 278.833 435.5 278.5C434.667 278.333 433.833 278.167 433 278C433.5 277 434 276 434.5 275C435 274 435.5 273 436 272C434.5 271.833 433 271.667 431.5 271.5C428.5 271.167 426.833 272 426.5 274ZM256 276C257.167 276.167 258.333 276.333 259.5 276.5C260.667 276.667 261.833 276.833 263 277C262.833 278.167 262.667 279.333 262.5 280.5C262.333 281.667 262.167 282.833 262 284C260.833 283.833 259.667 283.667 258.5 283.5C257.333 283.333 256.167 283.167 255 283C255.167 281.833 255.333 280.667 255.5 279.5C255.667 278.333 255.833 277.167 256 276ZM699.5 278C701.167 278.667 702 280 702 282C702 284 701.667 285.167 701 285.5C700.333 285.833 699.167 286 697.5 286C695.833 286 694.833 285.667 694.5 285C694.167 284.333 694.5 282.833 695.5 280.5C696.5 278.167 697.833 277.333 699.5 278ZM260 296.5C262 296.833 263.333 297.5 264 298.5C264.667 299.5 265.167 300.833 265.5 302.5C265.833 304.167 265.333 305.833 264 307.5C262.667 309.167 260.333 309.667 257 309C253.667 308.333 251.833 307 251.5 305C251.167 303 252 301 254 299C256 297 258 296.167 260 296.5ZM698.5 298C700.167 298 701.667 298.5 703 299.5C704.333 300.5 705.167 301.833 705.5 303.5C705.833 305.167 705.333 306.833 704 308.5C702.667 310.167 701 311 699 311C697 311 695.333 310.333 694 309C692.667 307.667 692.167 305.833 692.5 303.5C692.833 301.167 693.5 299.667 694.5 299C695.5 298.333 696.833 298 698.5 298ZM258.5 321C260.167 321.667 260.667 323.167 260 325.5C259.333 327.833 258.167 329 256.5 329C254.833 329 253.833 328.667 253.5 328C253.167 327.333 253 326.167 253 324.5C253 322.833 253.5 321.667 254.5 321C255.5 320.333 256.833 320.333 258.5 321ZM697 321C698 321 699 321 700 321C702 321 703.333 322 704 324C704.667 326 704.667 327.333 704 328C703.333 328.667 702 329 700 329C699 329 698 329 697 329C697 327.667 697 326.333 697 325C697 323.667 697 322.333 697 321ZM394 327.5C396 328.5 397.167 330.333 397.5 333C397.833 335.667 399 337.5 401 338.5C403 339.5 408.333 341.333 417 344C425.667 346.667 430.833 348 432.5 348C434.167 348 436.167 347.167 438.5 345.5C439.667 344.667 440.833 343.833 442 343C443 344.667 444 346.333 445 348C447 351.333 452.167 354.333 460.5 357C468.833 359.667 473 361.333 473 362C473 362.667 475.667 363.333 481 364C486.333 364.667 490.167 363.667 492.5 361C494.833 358.333 496.833 357.5 498.5 358.5C500.167 359.5 500 364.167 498 372.5C496 380.833 494 386.833 492 390.5C490 394.167 478.333 396.667 457 398C446.333 398.667 435.667 399.333 425 400C427.167 401.167 429.333 402.333 431.5 403.5C435.833 405.833 442.833 408.5 452.5 411.5C462.167 414.5 467.833 416 469.5 416C471.167 416 473.333 415.167 476 413.5C478.667 411.833 480.5 411.167 481.5 411.5C482.5 411.833 482.833 414 482.5 418C482.167 422 481 424.833 479 426.5C477 428.167 476 431.167 476 435.5C476 439.833 475.167 443 473.5 445C471.833 447 470.167 447.667 468.5 447C466.833 446.333 465.833 444.833 465.5 442.5C465.167 440.167 463.833 438.167 461.5 436.5C459.167 434.833 452.833 432.167 442.5 428.5C432.167 424.833 424.833 423.667 420.5 425C416.167 426.333 413.333 425.667 412 423C410.667 420.333 405.833 417.333 397.5 414C389.167 410.667 383.667 408.667 381 408C378.333 407.333 376 407.667 374 409C372 410.333 370.667 411.833 370 413.5C369.333 415.167 368.167 415.833 366.5 415.5C364.833 415.167 363.833 413.667 363.5 411C363.167 408.333 364.667 402.333 368 393C371.333 383.667 383.833 378.333 405.5 377C416.333 376.333 427.167 375.667 438 375C437.167 374.667 436.333 374.333 435.5 374C433.833 373.333 433 372.667 433 372C433 371.667 433 371.333 433 371C432.167 371 431.333 371 430.5 371C428.833 371 422.667 369 412 365C401.333 361 394.833 359 392.5 359C390.167 359 388.333 359.667 387 361C385.667 362.333 384 362.667 382 362C380 361.333 379.167 359.667 379.5 357C379.833 354.333 381 351.667 383 349C385 346.333 386.333 342.333 387 337C387.667 331.667 388.5 328.5 389.5 327.5C390.5 326.5 392 326.5 394 327.5ZM394 346.5C393.667 347 393.333 347.5 393 348C393.667 348.333 394.333 348.667 395 349C395.667 349.333 396.333 349.667 397 350C396.167 349.833 395.333 349.667 394.5 349.5C393.667 349.333 392.833 349.167 392 349C392 350 392 351 392 352C392 353 392 354 392 355C393 355 394 355 395 355C396 355 397 355 398 355C397.833 355.333 397.667 355.667 397.5 356C397.333 356.333 397.167 356.667 397 357C397.333 357.167 397.667 357.333 398 357.5C398.667 357.833 399.5 357.333 400.5 356C401 355.333 401.5 354.667 402 354C402.667 354.5 403.333 355 404 355.5C405.333 356.5 406.5 356.833 407.5 356.5C408.5 356.167 409 355 409 353C409 352 409 351 409 350C408 350.5 407 351 406 351.5C405 352 404 352.5 403 353C402.833 352 402.667 351 402.5 350C402.167 348 400.833 346.667 398.5 346C396.167 345.333 394.667 345.5 394 346.5ZM387 386.5C386.333 388.167 384.833 388.667 382.5 388C380.167 387.333 378.667 387.5 378 388.5C377.333 389.5 377.333 390.667 378 392C378.333 392.667 378.667 393.333 379 394C378.333 394 377.667 394 377 394C375.667 394 374.667 394.5 374 395.5C373.333 396.5 373.167 398 373.5 400C373.667 401 373.833 402 374 403C375 402.667 376 402.333 377 402C379 401.333 380 399.833 380 397.5C380 396.333 380 395.167 380 394C380.833 394.333 381.667 394.667 382.5 395C384.167 395.667 385 396.333 385 397C385 397.333 385 397.667 385 398C384.5 398 384 398 383.5 398C383 398 382.5 398 382 398C382 399 382 400 382 401C382 402 382 403 382 404C383.5 403.667 385 403.333 386.5 403C389.5 402.333 391 400.833 391 398.5C391 397.333 391 396.167 391 395C390.167 395 389.333 395 388.5 395C387.667 395 386.833 395 386 395C386 394.167 386 393.333 386 392.5C386 391.667 386 390.833 386 390C387.167 390 388.333 390 389.5 390C390.667 390 391.833 390 393 390C392.833 390.667 392.667 391.333 392.5 392C392.333 392.667 392.167 393.333 392 394C392.5 393.5 393 393 393.5 392.5C394.5 391.5 396 391.167 398 391.5C400 391.833 401.833 391.667 403.5 391C404.333 390.667 405.167 390.333 406 390C405.333 389.667 404.667 389.333 404 389C402.667 388.333 401.167 388.167 399.5 388.5C397.833 388.833 396.333 388.167 395 386.5C393.667 384.833 392.167 384 390.5 384C388.833 384 387.667 384.833 387 386.5ZM232.5 413C233 413 233.5 413 234 413C234 413.667 234 414.333 234 415C234 416.333 233.333 418.333 232 421C230.667 423.667 229.5 428 228.5 434C228 437 227.5 440 227 443C227.167 439 227.333 435 227.5 431C227.667 427 227.833 423 228 419C226.833 419.167 225.667 419.333 224.5 419.5C222.167 419.833 219.833 421.333 217.5 424C215.167 426.667 214 431 214 437C214 443 213.667 446.5 213 447.5C212.333 448.5 212.5 450.833 213.5 454.5C214 456.333 214.5 458.167 215 460C214.667 460 214.333 460 214 460C213.333 460 212.5 458.5 211.5 455.5C210.5 452.5 210.167 447 210.5 439C210.833 431 212.167 425.333 214.5 422C216.833 418.667 220.167 416.333 224.5 415C228.833 413.667 231.5 413 232.5 413ZM713 427C715.667 427.833 718.333 428.667 721 429.5C726.333 431.167 730 433.333 732 436C734 438.667 735.333 441.667 736 445C736.667 448.333 736.667 450.5 736 451.5C735.333 452.5 735.167 455.167 735.5 459.5C735.833 463.833 735.5 467.5 734.5 470.5C733.5 473.5 732.667 475 732 475C731.667 475 731.333 475 731 475C731.5 473.167 732 471.333 732.5 469.5C733.5 465.833 733.667 463.167 733 461.5C732.333 459.833 732.333 457.167 733 453.5C733.667 449.833 733.667 446.833 733 444.5C732.333 442.167 731.167 440 729.5 438C727.833 436 725.667 434.667 723 434C721.667 433.667 720.333 433.333 719 433C719.167 435.667 719.333 438.333 719.5 441C719.833 446.333 719.667 449.667 719 451C718.667 451.667 718.333 452.333 718 453C718 450.833 718 448.667 718 446.5C718 444.333 718 442.167 718 440C717.667 440 717.333 440 717 440C716.667 440 716.333 440 716 440C716 439.333 716 438.667 716 438C716 436.667 715.5 435.5 714.5 434.5C713.5 433.5 713 432 713 430C713 429 713 428 713 427ZM530.5 436C538.833 438.667 542.667 441.167 542 443.5C541.333 445.833 538.667 447.5 534 448.5C529.333 449.5 525.5 451.833 522.5 455.5C519.5 459.167 518.167 462.5 518.5 465.5C518.833 468.5 520.5 470.833 523.5 472.5C526.5 474.167 531.333 475.833 538 477.5C544.667 479.167 548.5 479.333 549.5 478C550.5 476.667 551.5 473.667 552.5 469C553.5 464.333 554.667 461.333 556 460C557.333 458.667 559.667 458.833 563 460.5C566.333 462.167 567 466.667 565 474C563 481.333 565.167 486.333 571.5 489C577.833 491.667 583 493.167 587 493.5C591 493.833 593.667 493.167 595 491.5C596.333 489.833 597.167 487.333 597.5 484C597.833 480.667 597.5 477.5 596.5 474.5C595.5 471.5 593.667 468.667 591 466C588.333 463.333 587 461.167 587 459.5C587 457.833 587.167 456.667 587.5 456C587.833 455.333 589 455 591 455C593 455 596.167 456.667 600.5 460C604.833 463.333 607.833 466.333 609.5 469C611.167 471.667 612.167 474.667 612.5 478C612.833 481.333 612.333 485.5 611 490.5C609.667 495.5 607.667 499.5 605 502.5C602.333 505.5 601 509.333 601 514C601 518.667 600.167 522.833 598.5 526.5C596.833 530.167 595.167 532 593.5 532C591.833 532 590.833 530.5 590.5 527.5C590.167 524.5 589.5 522.333 588.5 521C587.5 519.667 581.333 517.167 570 513.5C558.667 509.833 551.333 508.667 548 510C544.667 511.333 542.167 510.333 540.5 507C538.833 503.667 536.5 501.833 533.5 501.5C530.5 501.167 526.5 499.833 521.5 497.5C516.5 495.167 513 494.167 511 494.5C509 494.833 507 496.167 505 498.5C503 500.833 501.167 501.667 499.5 501C497.833 500.333 497.333 498 498 494C498.667 490 500.167 486.833 502.5 484.5C504.833 482.167 506 478.333 506 473C506 467.667 506.667 463 508 459C509.333 455 511 452 513 450C515 448 515.667 446 515 444C514.333 442 514.667 439.5 516 436.5C517.333 433.5 522.167 433.333 530.5 436ZM528.5 440C529 440.667 529.5 441.333 530 442C528.833 442.5 527.667 443 526.5 443.5C524.167 444.5 523 445.667 523 447C523 447.667 523 448.333 523 449C524.833 448.333 526.667 447.667 528.5 447C530.333 446.333 532.167 445.667 534 445C532.833 443.833 531.667 442.667 530.5 441.5C529.333 440.333 528.167 439.167 527 438C527.5 438.667 528 439.333 528.5 440ZM358.5 440C360.167 440.667 361.333 442.5 362 445.5C362.667 448.5 363.5 450.5 364.5 451.5C365.5 452.5 370.5 454.167 379.5 456.5C388.5 458.833 394 460 396 460C398 460 400.333 459.167 403 457.5C404.333 456.667 405.667 455.833 407 455C408 456.667 409 458.333 410 460C412 463.333 414 465 416 465C418 465 422 466.167 428 468.5C434 470.833 439.5 472.333 444.5 473C449.5 473.667 453.167 472.833 455.5 470.5C457.833 468.167 460 467 462 467C464 467 465.167 468.667 465.5 472C465.833 475.333 465 479 463 483C461 487 459.667 489 459 489C458.667 489 458.333 489 458 489C458.167 491.333 458.333 493.667 458.5 496C458.833 500.667 458.667 504 458 506C457.333 508 456.5 509.667 455.5 511C454.5 512.333 453.333 513.167 452 513.5C450.667 513.833 449.5 513.5 448.5 512.5C447.5 511.5 446.833 509.667 446.5 507C446.167 504.333 444.833 502.167 442.5 500.5C440.167 498.833 434.167 497.167 424.5 495.5C414.833 493.833 409.667 492.667 409 492C408.333 491.333 407 491 405 491C403 491 400.833 491.667 398.5 493C397.333 493.667 396.167 494.333 395 495C394.333 493.667 393.667 492.333 393 491C391.667 488.333 387.333 486 380 484C372.667 482 369 480.667 369 480C369 479.333 368.333 478.833 367 478.5C365.667 478.167 363.5 478 360.5 478C357.5 478 354.5 479.333 351.5 482C348.5 484.667 346.333 485.667 345 485C343.667 484.333 343.333 481.5 344 476.5C344.667 471.5 345.833 468 347.5 466C349.167 464 350.167 460.333 350.5 455C350.833 449.667 351.833 445.667 353.5 443C355.167 440.333 356.833 439.333 358.5 440ZM362 459C361.333 459.667 361.167 460.5 361.5 461.5C361.833 462.5 362.833 463.333 364.5 464C365.333 464.333 366.167 464.667 367 465C365.667 465 364.333 465 363 465C361.667 465 360.333 465 359 465C359.167 465.5 359.333 466 359.5 466.5C359.833 467.5 361.5 468.167 364.5 468.5C366 468.667 367.5 468.833 369 469C369 468.667 369 468.333 369 468C369 467.333 370 466.833 372 466.5C374 466.167 375.333 466.167 376 466.5C376.333 466.667 376.667 466.833 377 467C376.667 467.5 376.333 468 376 468.5C375.667 469 375.333 469.5 375 470C375.333 470 375.667 470 376 470C376.667 470 377.167 469 377.5 467C377.667 466 377.833 465 378 464C377 464 376 464 375 464C374 464 373 464 372 464C372.167 463.333 372.333 462.667 372.5 462C372.667 461.333 372.833 460.667 373 460C371.333 459.667 369.667 459.333 368 459C364.667 458.333 362.667 458.333 362 459ZM232 471C232.333 472.667 232.667 474.333 233 476C233.667 479.333 233.667 482 233 484C232.333 486 228.5 490.5 221.5 497.5C214.5 504.5 210.333 509.167 209 511.5C208.333 512.667 207.667 513.833 207 515C207.5 513.333 208 511.667 208.5 510C209.5 506.667 212.333 502.833 217 498.5C221.667 494.167 225.333 490.167 228 486.5C230.667 482.833 232 479.333 232 476C232 474.333 232 472.667 232 471ZM513 479.5C513 480.333 513 481.167 513 482C513.5 482 514 482 514.5 482C515 482 515.5 482 516 482C516 482.5 516 483 516 483.5C516 484 516 484.5 516 485C515.333 485 514.667 485 514 485C512.667 485 511.833 486 511.5 488C511.167 490 512.833 491.667 516.5 493C518.333 493.667 520.167 494.333 522 495C522 494.333 522 493.667 522 493C522 491.667 522.5 490.833 523.5 490.5C524 490.333 524.5 490.167 525 490C525 490.333 525 490.667 525 491C525 491.667 525.667 492.167 527 492.5C527.667 492.667 528.333 492.833 529 493C528.833 493.333 528.667 493.667 528.5 494C528.333 494.333 528.167 494.667 528 495C528.667 495 529.333 495 530 495C530.667 495 531.333 495 532 495C532 493.333 532 491.667 532 490C532 488.333 532 486.667 532 485C531.333 485 530.667 485 530 485C529.333 485 528.667 485 528 485C528.167 485.833 528.333 486.667 528.5 487.5C528.667 488.333 528.833 489.167 529 490C528.667 490 528.333 490 528 490C527.333 490 526 488 524 484C522 480 520.167 478.333 518.5 479C516.833 479.667 515.5 479.5 514.5 478.5C514 478 513.5 477.5 513 477C513 477.833 513 478.667 513 479.5ZM713 486C713.333 488 713.667 490 714 492C714.667 496 718.333 501.5 725 508.5C731.667 515.5 735.667 521.167 737 525.5C737.667 527.667 738.333 529.833 739 532C738.5 530.833 738 529.667 737.5 528.5C736.5 526.167 733.167 522.333 727.5 517C721.833 511.667 718 507.5 716 504.5C714 501.5 713 497.667 713 493C713 490.667 713 488.333 713 486ZM356 512C362 512.667 365.667 513.5 367 514.5C368.333 515.5 369 516.667 369 518C369 519.333 368.5 520.5 367.5 521.5C366.5 522.5 364.333 523.5 361 524.5C357.667 525.5 355 527.5 353 530.5C351 533.5 350.5 536.5 351.5 539.5C352.5 542.5 354.167 544.5 356.5 545.5C358.833 546.5 363.333 547.167 370 547.5C376.667 547.833 380.833 547.667 382.5 547C384.167 546.333 385.333 545.333 386 544C386.667 542.667 387.5 542 388.5 542C389.5 542 391 543.333 393 546C395 548.667 402.167 550.667 414.5 552C426.833 553.333 434 553.333 436 552C438 550.667 439.333 549.167 440 547.5C440.667 545.833 442.167 545 444.5 545C446.833 545 448.167 547 448.5 551C448.833 555 448.167 559 446.5 563C444.833 567 444.333 570.667 445 574C445.667 577.333 445.333 581.333 444 586C443.333 588.333 442.667 590.667 442 593C441 592.667 440 592.333 439 592C437 591.333 435.667 589.667 435 587C434.333 584.333 433 582.5 431 581.5C429 580.5 422.167 579.333 410.5 578C398.833 576.667 391.5 577 388.5 579C385.5 581 383 580.667 381 578C379 575.333 373.5 573.667 364.5 573C355.5 572.333 350.167 572.667 348.5 574C346.833 575.333 346 577.5 346 580.5C346 583.5 348.167 586.833 352.5 590.5C356.833 594.167 359 597 359 599C359 601 358.667 602.333 358 603C357.333 603.667 355.833 604 353.5 604C351.167 604 346.667 603.5 340 602.5C333.333 601.5 330.167 599 330.5 595C330.833 591 331.333 588.833 332 588.5C332.667 588.167 333 584.5 333 577.5C333 570.5 333.667 565.667 335 563C336.333 560.333 336.833 556 336.5 550C336.167 544 336.667 539 338 535C339.333 531 340 526.167 340 520.5C340 514.833 341.167 511.833 343.5 511.5C345.833 511.167 350 511.333 356 512ZM352.5 517C352.833 519 352.667 520.167 352 520.5C351.667 520.667 351.333 520.833 351 521C351.333 521.167 351.667 521.333 352 521.5C352.333 521.667 352.667 521.833 353 522C352.333 522.167 351.667 522.333 351 522.5C349.667 522.833 349 524 349 526C349 527 349 528 349 529C350 528 351 527 352 526C354 524 356.333 522.833 359 522.5C360.333 522.333 361.667 522.167 363 522C361.167 520.667 359.333 519.333 357.5 518C355.667 516.667 353.833 515.333 352 514C352.167 515 352.333 516 352.5 517ZM222.5 532.5C223.5 532.833 224 533.5 224 534.5C224 535 224 535.5 224 536C223.667 536 223.333 536 223 536C222.667 536 222.333 536 222 536C222.167 538.667 222.333 541.333 222.5 544C222.833 549.333 221.833 553.5 219.5 556.5C217.167 559.5 214.333 562.167 211 564.5C207.667 566.833 206.333 570.833 207 576.5C207.667 582.167 208.333 585 209 585C209.333 585 209.667 585 210 585C210 585.833 210 586.667 210 587.5C210 588.333 210 589.167 210 590C209.667 590 209.333 590 209 590C208.333 590 207.167 586.5 205.5 579.5C203.833 572.5 204 567.5 206 564.5C208 561.5 210.333 559.167 213 557.5C215.667 555.833 217.333 552.333 218 547C218.333 544.333 218.667 541.667 219 539C217 539.667 215 540.333 213 541C209 542.333 206 544.333 204 547C202 549.667 201 551.667 201 553C201 553.667 201 554.333 201 555C200.833 554.167 200.667 553.333 200.5 552.5C200.167 550.833 200.667 548.833 202 546.5C203.333 544.167 206.833 541.167 212.5 537.5C218.167 533.833 221.5 532.167 222.5 532.5ZM497 535.5C504.333 536.5 508.833 537.5 510.5 538.5C512.167 539.5 512.833 541 512.5 543C512.167 545 510 546.667 506 548C502 549.333 498.667 551.5 496 554.5C493.333 557.5 492 561.5 492 566.5C492 571.5 495.833 575.667 503.5 579C511.167 582.333 516.167 584 518.5 584C520.833 584 523.167 583.167 525.5 581.5C526.667 580.667 527.833 579.833 529 579C529.5 580.167 530 581.333 530.5 582.5C531.5 584.833 532.833 586.5 534.5 587.5C536.167 588.5 541.167 589.167 549.5 589.5C557.833 589.833 562.833 589.667 564.5 589C566.167 588.333 567.833 587 569.5 585C571.167 583 572.167 580.167 572.5 576.5C572.833 572.833 571.667 569.333 569 566C566.333 562.667 563 560.5 559 559.5C555 558.5 552.833 556.833 552.5 554.5C552.167 552.167 552.333 550.5 553 549.5C553.667 548.5 555.167 548 557.5 548C559.833 548 563.667 548.833 569 550.5C574.333 552.167 578.333 554.333 581 557C583.667 559.667 585.667 563.5 587 568.5C588.333 573.5 588.833 577.5 588.5 580.5C588.167 583.5 586.833 587.667 584.5 593C582.167 598.333 578.167 602.667 572.5 606C566.833 609.333 562.167 611.333 558.5 612C554.833 612.667 548.833 612.833 540.5 612.5C532.167 612.167 526.667 612.833 524 614.5C522.667 615.333 521.333 616.167 520 617C519 615.167 518 613.333 517 611.5C515 607.833 512.5 605.667 509.5 605C506.5 604.333 502.833 602.667 498.5 600C494.167 597.333 489.833 592.833 485.5 586.5C481.167 580.167 478.833 574.667 478.5 570C478.167 565.333 478.5 561.333 479.5 558C480.5 554.667 481.833 552.333 483.5 551C485.167 549.667 485.5 548 484.5 546C483.5 544 483.5 541.5 484.5 538.5C485.5 535.5 489.667 534.5 497 535.5ZM493 544C492.333 544.667 492.167 545.667 492.5 547C492.667 547.667 492.833 548.333 493 549C493.667 548.333 494.333 547.667 495 547C496.333 545.667 497.667 545.167 499 545.5C499.667 545.667 500.333 545.833 501 546C499.833 545.5 498.667 545 497.5 544.5C495.167 543.5 493.667 543.333 493 544ZM722 547C724.667 548.333 727.333 549.667 730 551C735.333 553.667 739 556 741 558C743 560 743.833 561.667 743.5 563C743.333 563.667 743.167 564.333 743 565C742.333 563.833 741.667 562.667 741 561.5C739.667 559.167 737.167 557.167 733.5 555.5C729.833 553.833 727.5 554 726.5 556C725.5 558 725.333 560.667 726 564C726.667 567.333 729.333 571.333 734 576C738.667 580.667 740.167 586.333 738.5 593C737.667 596.333 736.833 599.667 736 603C736.333 599.667 736.667 596.333 737 593C737.667 586.333 735.5 580.667 730.5 576C725.5 571.333 722.833 565.333 722.5 558C722.333 554.333 722.167 550.667 722 547ZM348 556C348 557 348 558 348 559C348.833 558.667 349.667 558.333 350.5 558C351.333 557.667 352.167 557.333 353 557C352.333 557.667 351.667 558.333 351 559C349.667 560.333 349.167 562 349.5 564C349.833 566 351.833 567.333 355.5 568C359.167 568.667 361.333 568.167 362 566.5C362.667 564.833 364.333 564.5 367 565.5C368.333 566 369.667 566.5 371 567C370.833 565.333 370.667 563.667 370.5 562C370.333 560.333 370.167 558.667 370 557C369.5 557.167 369 557.333 368.5 557.5C367.5 557.833 367.167 558.667 367.5 560C367.833 561.333 367.5 562.167 366.5 562.5C365.5 562.833 364.167 562.167 362.5 560.5C360.833 558.833 360.167 557.5 360.5 556.5C360.667 556 360.833 555.5 361 555C358.833 554.667 356.667 554.333 354.5 554C352.333 553.667 350.167 553.333 348 553C348 554 348 555 348 556ZM250.5 566C251 566 251.5 566 252 566C252 566.5 252 567 252 567.5C252 568.5 250.167 571.5 246.5 576.5C242.833 581.5 240.333 587.333 239 594C238.333 597.333 237.667 600.667 237 604C237.167 601.333 237.333 598.667 237.5 596C237.833 590.667 238.833 585.5 240.5 580.5C241.333 578 242.167 575.5 243 573C241.333 573.167 239.667 573.333 238 573.5C234.667 573.833 233 574.5 233 575.5C233 576.5 231.833 578.167 229.5 580.5C227.167 582.833 225.5 585.5 224.5 588.5C223.5 591.5 223.167 597.167 223.5 605.5C223.667 609.667 223.833 613.833 224 618C223.333 615.167 222.667 612.333 222 609.5C220.667 603.833 220.333 598.333 221 593C221.667 587.667 223.833 582.667 227.5 578C231.167 573.333 235.667 570.167 241 568.5C246.333 566.833 249.5 566 250.5 566ZM193 579C194.333 580.167 195.667 581.333 197 582.5C199.667 584.833 201.167 587.667 201.5 591C201.667 592.667 201.833 594.333 202 596C200.5 593.167 199 590.333 197.5 587.5C196 584.667 194.5 581.833 193 579ZM693 580C695.833 580.833 698.667 581.667 701.5 582.5C707.167 584.167 711.833 586.833 715.5 590.5C719.167 594.167 721.5 599.5 722.5 606.5C723.5 613.5 723.167 620 721.5 626C720.667 629 719.833 632 719 635C719.333 630.167 719.667 625.333 720 620.5C720.667 610.833 720.667 605 720 603C719.333 601 717.833 598.333 715.5 595C713.167 591.667 710.833 589.5 708.5 588.5C706.167 587.5 704.5 587.167 703.5 587.5C703 587.667 702.5 587.833 702 588C702.667 590 703.333 592 704 594C705.333 598 706 602.333 706 607C706 611.667 706.667 615.333 708 618C708.667 619.333 709.333 620.667 710 622C709.167 620.667 708.333 619.333 707.5 618C705.833 615.333 704.333 610.5 703 603.5C701.667 596.5 699.667 591.5 697 588.5C694.333 585.5 693 583.333 693 582C693 581.333 693 580.667 693 580ZM340 591C339.667 592.333 339.333 593.667 339 595C339.667 595.167 340.333 595.333 341 595.5C342.333 595.833 343.333 595.333 344 594C344.667 592.667 344.5 591.5 343.5 590.5C343 590 342.5 589.5 342 589C342.5 588.667 343 588.333 343.5 588C344 587.667 344.5 587.333 345 587C344.333 587 343.667 587 343 587C341.667 587 340.667 588.333 340 591ZM500 588.5C499.333 589.5 497.833 589.667 495.5 589C494.333 588.667 493.167 588.333 492 588C492 588.5 492 589 492 589.5C492 590.5 492.5 591.333 493.5 592C494.5 592.667 495.833 592.667 497.5 592C499.167 591.333 500.833 591.333 502.5 592C504.167 592.667 505 593.333 505 594C505 594.333 505 594.667 505 595C505.5 594.833 506 594.667 506.5 594.5C507.5 594.167 508.333 594.5 509 595.5C509.667 596.5 510.667 596.833 512 596.5C513.333 596.167 514 594.833 514 592.5C514 591.333 514 590.167 514 589C513.5 589.167 513 589.333 512.5 589.5C511.5 589.833 511 590.5 511 591.5C511 592 511 592.5 511 593C510.333 593 509.667 593 509 593C508.333 593 507.667 593 507 593C507 592.333 507 591.667 507 591C507 589.667 506 588.667 504 588C502 587.333 500.667 587.5 500 588.5ZM750 594C750.333 594.333 750.667 594.667 751 595C751.667 595.667 750.5 598 747.5 602C744.5 606 743.167 608.5 743.5 609.5C743.667 610 743.833 610.5 744 611C743.667 611 743.333 611 743 611C742.667 611 742.333 611 742 611C742.167 609.5 742.333 608 742.5 606.5C742.833 603.5 744.167 600.667 746.5 598C747.667 596.667 748.833 595.333 750 594ZM200 608C201.833 608.667 203.667 609.333 205.5 610C209.167 611.333 211.833 613.5 213.5 616.5C214.333 618 215.167 619.5 216 621C213.333 619.167 210.667 617.333 208 615.5C202.667 611.833 200 609.667 200 609C200 608.667 200 608.333 200 608ZM184 619C186.333 619.167 188.667 619.333 191 619.5C193.333 619.667 195.667 619.833 198 620C196.333 620.333 194.667 620.667 193 621C191.333 621.333 189.667 621.667 188 622C188.167 622.667 188.333 623.333 188.5 624C188.833 625.333 190.167 627.167 192.5 629.5C194.833 631.833 197.333 633.167 200 633.5C202.667 633.833 205 633.5 207 632.5C209 631.5 212.333 632.667 217 636C221.667 639.333 224.667 642.333 226 645C227.333 647.667 228.333 649 229 649C229.333 649 229.667 649 230 649C230 650.5 230 652 230 653.5C230 656.5 228.833 659.833 226.5 663.5C224.167 667.167 222.5 669 221.5 669C221 669 220.5 669 220 669C220 668.667 220 668.333 220 668C220 667.333 221.167 665.833 223.5 663.5C225.833 661.167 227 658.667 227 656C227 653.333 226 650.333 224 647C222 643.667 219.5 641 216.5 639C213.5 637 210 636.333 206 637C202 637.667 199 637.667 197 637C195 636.333 192.5 634.167 189.5 630.5C186.5 626.833 184.833 624 184.5 622C184.333 621 184.167 620 184 619ZM409 624.5C415.667 625.5 421.5 628.5 426.5 633.5C431.5 638.5 434.5 642.333 435.5 645C436.5 647.667 437.167 652 437.5 658C437.833 664 437.167 670 435.5 676C433.833 682 431.833 686 429.5 688C427.167 690 423.833 692 419.5 694C415.167 696 411.5 697 408.5 697C405.5 697 403.667 696.667 403 696C402.333 695.333 402.167 693.833 402.5 691.5C402.833 689.167 404.833 686.833 408.5 684.5C412.167 682.167 415 679 417 675C419 671 419.833 667 419.5 663C419.167 659 418.667 657 418 657C417.333 657 416.833 656.333 416.5 655C416.167 653.667 414.167 652.333 410.5 651C406.833 649.667 403.333 650 400 652C396.667 654 394.5 658.167 393.5 664.5C392.5 670.833 390.667 674.167 388 674.5C385.333 674.833 382.5 677.333 379.5 682C376.5 686.667 374 689.833 372 691.5C370 693.167 367.167 694.667 363.5 696C359.833 697.333 356.5 698 353.5 698C350.5 698 347 697 343 695C339 693 335.167 689 331.5 683C327.833 677 325.833 670.667 325.5 664C325.167 657.333 325.667 652.167 327 648.5C327.667 646.667 328.333 644.833 329 643C328.5 642.833 328 642.667 327.5 642.5C326.5 642.167 326 639.833 326 635.5C326 631.167 329.667 628.833 337 628.5C344.333 628.167 349 628.5 351 629.5C353 630.5 353.833 632 353.5 634C353.167 636 351.333 637.833 348 639.5C344.667 641.167 342.333 642.833 341 644.5C339.667 646.167 338.667 649.5 338 654.5C337.333 659.5 338 663.5 340 666.5C342 669.5 344.833 671.167 348.5 671.5C352.167 671.833 356.167 669.833 360.5 665.5C364.833 661.167 367.167 657 367.5 653C367.833 649 369.333 646.5 372 645.5C374.667 644.5 377.833 641.333 381.5 636C385.167 630.667 389 627.167 393 625.5C397 623.833 402.333 623.5 409 624.5ZM742 624.5C743 624.667 744 624.833 745 625C744.167 625.167 743.333 625.333 742.5 625.5C740.833 625.833 738 627.667 734 631C732 632.667 730 634.333 728 636C728.167 635.167 728.333 634.333 728.5 633.5C728.833 631.833 730.667 629.833 734 627.5C737.333 625.167 740 624.167 742 624.5ZM249.5 633C251.833 633 254.5 634 257.5 636C259 637 260.5 638 262 639C260.667 639.667 259.333 640.333 258 641C255.333 642.333 252.833 644.667 250.5 648C248.167 651.333 246 653.5 244 654.5C242 655.5 240.167 655.833 238.5 655.5C237.667 655.333 236.833 655.167 236 655C237.167 654.667 238.333 654.333 239.5 654C241.833 653.333 244.667 650.667 248 646C251.333 641.333 252.833 638.667 252.5 638C252.167 637.333 250 637 246 637C242 637 238.833 638 236.5 640C235.333 641 234.167 642 233 643C233.667 641.833 234.333 640.667 235 639.5C236.333 637.167 238.5 635.5 241.5 634.5C244.5 633.5 247.167 633 249.5 633ZM757.5 633C758.5 633 759.333 633.5 760 634.5C760.667 635.5 759.167 638.5 755.5 643.5C751.833 648.5 748.5 651.333 745.5 652C742.5 652.667 739.833 652.5 737.5 651.5C735.167 650.5 733.167 650.333 731.5 651C729.833 651.667 728.167 652.5 726.5 653.5C724.833 654.5 722.667 657.167 720 661.5C717.333 665.833 716 669.167 716 671.5C716 673.833 716.667 676 718 678C719.333 680 721.5 681.833 724.5 683.5C727.5 685.167 730.833 686 734.5 686C736.333 686 738.167 686 740 686C739.833 686.5 739.667 687 739.5 687.5C739.167 688.5 738.333 689 737 689C735.667 689 733 690.667 729 694C725 697.333 722.5 699.833 721.5 701.5C720.5 703.167 720 705.5 720 708.5C720 711.5 721.167 714.167 723.5 716.5C725.833 718.833 728.167 720.5 730.5 721.5C732.833 722.5 734.333 724.667 735 728C735.667 731.333 737.5 733.333 740.5 734C743.5 734.667 745 735.333 745 736C745 736.333 745 736.667 745 737C744.5 737 744 737 743.5 737C742.5 737 740.5 736.5 737.5 735.5C734.5 734.5 732.667 732.5 732 729.5C731.333 726.5 729.5 724.333 726.5 723C723.5 721.667 722 720.5 722 719.5C722 719 722 718.5 722 718C721.667 718.167 721.333 718.333 721 718.5C720.667 718.667 720.333 718.833 720 719C719.667 718 719.333 717 719 716C718.333 714 717.667 713 717 713C716.667 713 716.333 713 716 713C716 711.833 716 710.667 716 709.5C716 707.167 716.667 704.5 718 701.5C719.333 698.5 721 696.333 723 695C725 693.667 726 692.5 726 691.5C726 690.5 723.833 689.833 719.5 689.5C717.333 689.333 715.167 689.167 713 689C715 688.833 717 688.667 719 688.5C723 688.167 725.167 687.5 725.5 686.5C725.667 686 725.833 685.5 726 685C725.167 684.833 724.333 684.667 723.5 684.5C721.833 684.167 720 682.833 718 680.5C716 678.167 714.667 674.833 714 670.5C713.333 666.167 715.667 661.333 721 656C726.333 650.667 730.333 647.667 733 647C735.667 646.333 737.5 646.5 738.5 647.5C739.5 648.5 741.333 648.833 744 648.5C746.667 648.167 749 647 751 645C753 643 754.167 641.167 754.5 639.5C754.667 638.667 754.833 637.833 755 637C753 637 751 637 749 637C747 637 745 637 743 637C743 636.667 743 636.333 743 636C743 635.333 745.167 634.667 749.5 634C753.833 633.333 756.5 633 757.5 633ZM471 647C472 647.5 473 648 474 648.5C476 649.5 477.833 651.333 479.5 654C481.167 656.667 486.333 658 495 658C503.667 658 508.833 657.833 510.5 657.5C512.167 657.167 513.667 656 515 654C516.333 652 517.5 651 518.5 651C519.5 651 520.833 652 522.5 654C524.167 656 531 657.167 543 657.5C555 657.833 561.833 657.333 563.5 656C565.167 654.667 566.167 653.167 566.5 651.5C566.833 649.833 568 648.833 570 648.5C572 648.167 573.5 648.833 574.5 650.5C575.5 652.167 575.833 655 575.5 659C575.167 663 574.5 665.833 573.5 667.5C572.5 669.167 572.5 671.167 573.5 673.5C574.5 675.833 575 678.833 575 682.5C575 686.167 574.5 688.833 573.5 690.5C572.5 692.167 571.5 693 570.5 693C569.5 693 568.333 691.667 567 689C565.667 686.333 562.667 684.5 558 683.5C553.333 682.5 550 682.333 548 683C546 683.667 541.667 683.833 535 683.5C528.333 683.167 523.833 684.167 521.5 686.5C520.333 687.667 519.167 688.833 518 690C516.833 688.833 515.667 687.667 514.5 686.5C512.167 684.167 506.333 682.833 497 682.5C487.667 682.167 482 682.667 480 684C478 685.333 476.833 686.833 476.5 688.5C476.167 690.167 475.167 691.333 473.5 692C471.833 692.667 470.5 692.333 469.5 691C468.5 689.667 468.5 685.5 469.5 678.5C470.5 671.5 470.5 665.833 469.5 661.5C468.5 657.167 468.5 653.667 469.5 651C470 649.667 470.5 648.333 471 647ZM700.5 648C703.5 648.667 706 650.167 708 652.5C710 654.833 710.833 656.667 710.5 658C710.333 658.667 710.167 659.333 710 660C709.167 658.667 708.333 657.333 707.5 656C705.833 653.333 703.167 651.833 699.5 651.5C695.833 651.167 693.5 651.333 692.5 652C691.5 652.667 692 655 694 659C696 663 698.167 665.833 700.5 667.5C701.667 668.333 702.833 669.167 704 670C702.833 669.667 701.667 669.333 700.5 669C698.167 668.333 695.333 665.833 692 661.5C688.667 657.167 686.167 654.833 684.5 654.5C683.667 654.333 682.833 654.167 682 654C682.5 653.167 683 652.333 683.5 651.5C684.5 649.833 686.833 648.667 690.5 648C694.167 647.333 697.5 647.333 700.5 648ZM481.5 666C481.167 668 481.333 669.333 482 670C482.667 670.667 482.5 671.667 481.5 673C481 673.667 480.5 674.333 480 675C480.167 674.667 480.333 674.333 480.5 674C480.833 673.333 481.667 673.167 483 673.5C484.333 673.833 485.833 673.167 487.5 671.5C489.167 669.833 491 669 493 669C494 669 495 669 496 669C496 668.333 496 667.667 496 667C496 666.333 496 665.667 496 665C495 665.333 494 665.667 493 666C491 666.667 489.667 666.833 489 666.5C488.667 666.333 488.333 666.167 488 666C488.333 665.5 488.667 665 489 664.5C489.333 664 489.667 663.5 490 663C488.667 663 487.333 663 486 663C483.333 663 481.833 664 481.5 666ZM248 667C250.833 667.167 253.667 667.333 256.5 667.5C259.333 667.667 262.167 667.833 265 668C264.5 668.333 264 668.667 263.5 669C262.5 669.667 260.333 670 257 670C253.667 670 251.833 671.333 251.5 674C251.333 675.333 251.167 676.667 251 678C254.667 678.5 258.333 679 262 679.5C269.333 680.5 273.833 680.333 275.5 679C277.167 677.667 277.667 676.333 277 675C276.667 674.333 276.333 673.667 276 673C276.5 673 277 673 277.5 673C278.5 673 279.667 673.833 281 675.5C281.667 676.333 282.333 677.167 283 678C281.667 678.5 280.333 679 279 679.5C276.333 680.5 274.667 681.833 274 683.5C273.333 685.167 271.167 685.333 267.5 684C263.833 682.667 259.5 682.167 254.5 682.5C252 682.667 249.5 682.833 247 683C247.167 680.333 247.333 677.667 247.5 675C247.667 672.333 247.833 669.667 248 667ZM217 669C217.333 669.333 217.667 669.667 218 670C218.333 670.333 218.667 670.667 219 671C218.667 671.333 218.333 671.667 218 672C217.667 672.333 217.333 672.667 217 673C219.833 673.333 222.667 673.667 225.5 674C228.333 674.333 231.167 674.667 234 675C231 675 228 675 225 675C222 675 219 675 216 675C217.667 677.167 219.333 679.333 221 681.5C224.333 685.833 226.167 689.667 226.5 693C226.833 696.333 225.667 699.5 223 702.5C220.333 705.5 217.833 707.5 215.5 708.5C213.167 709.5 211.333 711.833 210 715.5C208.667 719.167 204.667 721 198 721C194.667 721 191.333 721 188 721C188.833 719.5 189.667 718 190.5 716.5C191.333 715 192.167 713.5 193 712C192.833 713.333 192.667 714.667 192.5 716C192.333 717.333 192.167 718.667 192 720C194.167 719.833 196.333 719.667 198.5 719.5C202.833 719.167 205.5 718.5 206.5 717.5C207.5 716.5 208 714.667 208 712C208 709.333 210.167 706.667 214.5 704C218.833 701.333 221.333 698.667 222 696C222.667 693.333 222.667 691.167 222 689.5C221.333 687.833 219.833 685.5 217.5 682.5C215.167 679.5 212.333 677.167 209 675.5C205.667 673.833 204 672.5 204 671.5C204 671 204 670.5 204 670C205.667 670.333 207.333 670.667 209 671C212.333 671.667 214.5 671.5 215.5 670.5C216 670 216.5 669.5 217 669ZM362.5 673C362 674 361.5 675 361 676C360.333 675.5 359.667 675 359 674.5C358.333 674 357.667 673.5 357 673C356.667 673.833 356.333 674.667 356 675.5C355.333 677.167 354 678.167 352 678.5C351 678.667 350 678.833 349 679C349.167 679.5 349.333 680 349.5 680.5C349.833 681.5 349.667 682.333 349 683C348.333 683.667 347.5 684 346.5 684C346 684 345.5 684 345 684C345.167 683.5 345.333 683 345.5 682.5C345.667 682 345.833 681.5 346 681C345.333 681 344.667 681 344 681C342.667 681 341.5 682 340.5 684C340 685 339.5 686 339 687C340.333 687.667 341.667 688.333 343 689C344.333 689.667 345.667 690.333 347 691C347.167 690.333 347.333 689.667 347.5 689C347.833 687.667 348.833 686.833 350.5 686.5C351.333 686.333 352.167 686.167 353 686C352.833 686.5 352.667 687 352.5 687.5C352.333 688 352.167 688.5 352 689C352.833 689 353.667 689 354.5 689C356.167 689 357.333 689.5 358 690.5C358.333 691 358.667 691.5 359 692C359 691.333 359 690.667 359 690C359 688.667 360.167 687.333 362.5 686C363.667 685.333 364.833 684.667 366 684C365.5 683.5 365 683 364.5 682.5C364 682 363.5 681.5 363 681C363.333 680.667 363.667 680.333 364 680C364.667 679.333 364.667 678.333 364 677C363.667 676.333 363.333 675.667 363 675C364 675.333 365 675.667 366 676C367 676.333 368 676.667 369 677C368.667 675.833 368.333 674.667 368 673.5C367.333 671.167 366.5 670 365.5 670C364.5 670 363.5 671 362.5 673ZM692 681C694 681 695.167 681.333 695.5 682C695.833 682.667 696 685.5 696 690.5C696 693 696 695.5 696 698C693.667 697.5 691.333 697 689 696.5C684.333 695.5 680 695.833 676 697.5C672 699.167 669.333 699 668 697C666.667 695 664.833 693.5 662.5 692.5C661.333 692 660.167 691.5 659 691C660 690.5 661 690 662 689.5C663 689 664 688.5 665 688C664.833 688.5 664.667 689 664.5 689.5C664.167 690.5 665.333 691.833 668 693.5C670.667 695.167 673.5 695.333 676.5 694C679.5 692.667 682.833 692 686.5 692C688.333 692 690.167 692 692 692C691.833 690.667 691.667 689.333 691.5 688C691.167 685.333 689.333 684 686 684C684.333 684 682.667 684 681 684C682.333 683.5 683.667 683 685 682.5C687.667 681.5 690 681 692 681ZM233 691C235.833 691.5 238.667 692 241.5 692.5C247.167 693.5 251.167 695 253.5 697C255.833 699 257.5 701.167 258.5 703.5C259 704.667 259.5 705.833 260 707C257.333 707.667 254.667 708.333 252 709C246.667 710.333 242.5 710.667 239.5 710C236.5 709.333 233.667 707.333 231 704C229.667 702.333 228.333 700.667 227 699C229.167 700.5 231.333 702 233.5 703.5C237.833 706.5 241.167 707.833 243.5 707.5C245.833 707.167 247.833 706.5 249.5 705.5C251.167 704.5 252 703.5 252 702.5C252 701.5 250.333 699.667 247 697C243.667 694.333 240.5 692.667 237.5 692C236 691.667 234.5 691.333 233 691ZM705 705C708.333 705 710.5 705.333 711.5 706C712 706.333 712.5 706.667 713 707C711.167 707 709.333 707 707.5 707C703.833 707 700.5 707.833 697.5 709.5C694.5 711.167 692.333 713 691 715C690.333 716 689.667 717 689 718C690 718.667 691 719.333 692 720C694 721.333 696.333 722.167 699 722.5C701.667 722.833 703.667 722.833 705 722.5C706.333 722.167 708 720.833 710 718.5C711 717.333 712 716.167 713 715C712 716.5 711 718 710 719.5C708 722.5 705 724.167 701 724.5C697 724.833 693.833 724.333 691.5 723C689.167 721.667 687 721 685 721C684 721 683 721 682 721C682.833 719.667 683.667 718.333 684.5 717C686.167 714.333 689.167 711.667 693.5 709C697.833 706.333 701.667 705 705 705ZM556 713C557.667 713 559.333 713 561 713C561 713.333 561 713.667 561 714C561 714.667 562.167 715.333 564.5 716C566.833 716.667 569.667 718.333 573 721C576.333 723.667 578.667 726.5 580 729.5C581.333 732.5 582 738.5 582 747.5C582 756.5 582.833 762.333 584.5 765C586.167 767.667 587 771 587 775C587 779 586 781.333 584 782C582 782.667 580.667 782.167 580 780.5C579.333 778.833 577.5 777.5 574.5 776.5C571.5 775.5 569.833 775.333 569.5 776C569.167 776.667 564.333 777.333 555 778C545.667 778.667 540 779.5 538 780.5C536 781.5 534.333 783 533 785C532.333 786 531.667 787 531 788C529.833 787.167 528.667 786.333 527.5 785.5C525.167 783.833 519.5 783.333 510.5 784C501.5 784.667 496 785.667 494 787C492 788.333 490.333 790.667 489 794C487.667 797.333 486 798.667 484 798C482 797.333 480.667 794.5 480 789.5C479.333 784.5 479.333 780.667 480 778C480.667 775.333 480.167 772.833 478.5 770.5C476.833 768.167 476.167 764.667 476.5 760C476.833 755.333 477.833 753 479.5 753C481.167 753 482.667 754.333 484 757C485.333 759.667 487.833 761.167 491.5 761.5C495.167 761.833 500.5 761.5 507.5 760.5C514.5 759.5 519.167 757.5 521.5 754.5C522.667 753 523.833 751.5 525 750C526 750.833 527 751.667 528 752.5C530 754.167 531.833 755.167 533.5 755.5C535.167 755.833 539.333 755.5 546 754.5C552.667 753.5 557.333 752.167 560 750.5C562.667 748.833 564.333 746.667 565 744C565.667 741.333 565.667 738.833 565 736.5C564.333 734.167 563.667 732.333 563 731C562.333 729.667 559.833 727.833 555.5 725.5C551.167 723.167 549.333 720.5 550 717.5C550.667 714.5 552.667 713 556 713ZM429 717C430.333 717 431.5 717.5 432.5 718.5C433.5 719.5 434.333 721.333 435 724C435.667 726.667 435.5 730.167 434.5 734.5C433.5 738.833 433.833 741.667 435.5 743C437.167 744.333 438 748.167 438 754.5C438 757.667 438 760.833 438 764C437.167 764 436.333 764 435.5 764C433.833 764 432 762.667 430 760C428 757.333 424.667 756 420 756C415.333 756 410.5 756.833 405.5 758.5C400.5 760.167 396.167 761 392.5 761C388.833 761 386.167 762.5 384.5 765.5C382.833 768.5 381.333 769.833 380 769.5C378.667 769.167 378 768.5 378 767.5C378 767 378 766.5 378 766C377.667 766.167 377.333 766.333 377 766.5C376.667 766.667 376.333 766.833 376 767C375.833 766.5 375.667 766 375.5 765.5C375.167 764.5 370 764.5 360 765.5C350 766.5 344 767.667 342 769C340 770.333 338.667 772.5 338 775.5C337.333 778.5 336.167 780.167 334.5 780.5C332.833 780.833 331.5 780.5 330.5 779.5C329.5 778.5 329 774.333 329 767C329 759.667 328.167 754.5 326.5 751.5C324.833 748.5 324 744.833 324 740.5C324 736.167 324.833 733.833 326.5 733.5C328.167 733.167 329.833 734.167 331.5 736.5C333.167 738.833 335.167 740.333 337.5 741C339.833 741.667 345.333 741.333 354 740C362.667 738.667 368.167 736.5 370.5 733.5C372.833 730.5 374.5 729 375.5 729C376.5 729 377.833 730 379.5 732C381.167 734 387.5 734.333 398.5 733C409.5 731.667 416 730.667 418 730C420 729.333 422 727 424 723C426 719 427.667 717 429 717ZM219 724C219.333 724 219.667 724 220 724C220 724.5 220 725 220 725.5C220 726.5 219.333 727.833 218 729.5C216.667 731.167 214 732.167 210 732.5C208 732.667 206 732.833 204 733C205.833 732.167 207.667 731.333 209.5 730.5C213.167 728.833 215.5 727.333 216.5 726C217.5 724.667 218.333 724 219 724ZM751 731C751.333 731 751.667 731 752 731C752.667 731 753.167 732 753.5 734C753.667 735 753.833 736 754 737C752.833 737 751.667 737 750.5 737C748.167 737 746.833 736.667 746.5 736C746.333 735.667 746.167 735.333 746 735C746.833 735 747.667 735 748.5 735C749.333 735 750.167 735 751 735C751 734.333 751 733.667 751 733C751 732.333 751 731.667 751 731ZM228 734C228.167 734.5 228.333 735 228.5 735.5C228.833 736.5 228.167 738.333 226.5 741C224.833 743.667 224.167 747 224.5 751C224.833 755 226.833 759.5 230.5 764.5C234.167 769.5 236.667 772 238 772C239.333 772 240.167 768.333 240.5 761C240.833 753.667 240 748.167 238 744.5C237 742.667 236 740.833 235 739C236 740 237 741 238 742C240 744 241 745.833 241 747.5C241 749.167 241.333 750.167 242 750.5C242.667 750.833 243 754.333 243 761C243 767.667 243.333 771.667 244 773C244.667 774.333 245.833 775.333 247.5 776C249.167 776.667 249.833 777.5 249.5 778.5C249.167 779.5 247.333 779.667 244 779C240.667 778.333 237.333 776.667 234 774C230.667 771.333 228 768.5 226 765.5C224 762.5 222.667 759.167 222 755.5C221.333 751.833 221.667 747.833 223 743.5C224.333 739.167 225.5 736.5 226.5 735.5C227 735 227.5 734.5 228 734ZM722 739C724.333 740.5 726.667 742 729 743.5C731.333 745 733.667 746.5 736 748C734.5 747.833 733 747.667 731.5 747.5C728.5 747.167 726.167 745.667 724.5 743C723.667 741.667 722.833 740.333 722 739ZM197.5 743C198 743 198.5 743 199 743C198.833 743.833 198.667 744.667 198.5 745.5C198.167 747.167 197.5 748.833 196.5 750.5C195.5 752.167 194.5 753 193.5 753C193 753 192.5 753 192 753C192.667 751.333 193.333 749.667 194 748C195.333 744.667 196.5 743 197.5 743ZM339 748.5C337.333 749 335.667 749.5 334 750C335.5 750.5 337 751 338.5 751.5C340 752 341.5 752.5 343 753C342.667 753.5 342.333 754 342 754.5C341.333 755.5 340.333 755.833 339 755.5C338.333 755.333 337.667 755.167 337 755C337.167 755.667 337.333 756.333 337.5 757C337.667 757.667 337.833 758.333 338 759C338.333 758.667 338.667 758.333 339 758C339.667 757.333 341.167 757 343.5 757C345.833 757 347.5 756.167 348.5 754.5C349.5 752.833 350.5 752 351.5 752C352 752 352.5 752 353 752C353 752.5 353 753 353 753.5C353 754 353 754.5 353 755C353.5 754.833 354 754.667 354.5 754.5C355.5 754.167 356 753 356 751C356 750 356 749 356 748C355.333 748 354.667 748 354 748C352.667 748 351.5 748.5 350.5 749.5C350 750 349.5 750.5 349 751C348.833 750.333 348.667 749.667 348.5 749C348.167 747.667 347.333 747 346 747C344.667 747 342.333 747.5 339 748.5ZM713 747C714.167 749.167 715.333 751.333 716.5 753.5C718.833 757.833 719.667 762.833 719 768.5C718.333 774.167 716.167 779.167 712.5 783.5C708.833 787.833 706.333 790 705 790C703.667 790 702.833 790.5 702.5 791.5C702.167 792.5 700.333 793.167 697 793.5C693.667 793.833 691.833 793.667 691.5 793C691.167 792.333 692.333 791 695 789C697.667 787 699.167 782.5 699.5 775.5C699.667 772 699.833 768.5 700 765C700.333 768.667 700.667 772.333 701 776C701.333 779.667 701.667 783.333 702 787C703.167 786.667 704.333 786.333 705.5 786C706.667 785.667 707.833 785.333 709 785C708.833 784.667 708.667 784.333 708.5 784C708.167 783.333 709.333 781.5 712 778.5C714.667 775.5 716.333 771.5 717 766.5C717.667 761.5 717.167 757 715.5 753C714.667 751 713.833 749 713 747ZM209 753C209 754 209 755 209 756C209 758 207.833 760.5 205.5 763.5C203.167 766.5 201.5 769.5 200.5 772.5C199.5 775.5 198.833 779.333 198.5 784C198.167 788.667 198.5 792 199.5 794C200.5 796 203.5 798.167 208.5 800.5C211 801.667 213.5 802.833 216 804C215.833 802.167 215.667 800.333 215.5 798.5C215.167 794.833 213.833 791.333 211.5 788C209.167 784.667 208.167 782.667 208.5 782C208.667 781.667 208.833 781.333 209 781C210.5 783 212 785 213.5 787C216.5 791 218.167 795.5 218.5 800.5C218.833 805.5 218.667 808.167 218 808.5C217.333 808.833 214.333 807.833 209 805.5C203.667 803.167 199.833 800.333 197.5 797C195.167 793.667 194 790.5 194 787.5C194 784.5 194.667 780.667 196 776C197.333 771.333 199.333 767.667 202 765C204.667 762.333 206.5 759.667 207.5 757C208 755.667 208.5 754.333 209 753ZM744 758C744.5 758.333 745 758.667 745.5 759C746.5 759.667 747.5 761.5 748.5 764.5C749 766 749.5 767.5 750 769C749.167 768.333 748.333 767.667 747.5 767C745.833 765.667 744.833 763.833 744.5 761.5C744.333 760.333 744.167 759.167 744 758ZM524.5 767.5C524.167 768.5 523.333 768.833 522 768.5C521.333 768.333 520.667 768.167 520 768C519.833 768.833 519.667 769.667 519.5 770.5C519.167 772.167 519.333 773.5 520 774.5C520.667 775.5 522.5 775.667 525.5 775C527 774.667 528.5 774.333 530 774C529.333 773.833 528.667 773.667 528 773.5C526.667 773.167 526.167 772.167 526.5 770.5C526.833 768.833 526.667 767.667 526 767C525.667 766.667 525.333 766.333 525 766C524.833 766.5 524.667 767 524.5 767.5ZM508 775C507.667 775.667 507.333 776.333 507 777C508.167 777.333 509.333 777.667 510.5 778C511.667 778.333 512.833 778.667 514 779C513.167 778 512.333 777 511.5 776C510.667 775 509.833 774 509 773C508.667 773.667 508.333 774.333 508 775ZM734 774C735.833 776.333 737.667 778.667 739.5 781C743.167 785.667 745.333 791.5 746 798.5C746.667 805.5 746 810.333 744 813C742 815.667 737.833 818 731.5 820C728.333 821 725.167 822 722 823C722 821.333 722 819.667 722 818C722 814.667 723.5 810.333 726.5 805C729.5 799.667 731.333 797.167 732 797.5C732.333 797.667 732.667 797.833 733 798C732 799.333 731 800.667 730 802C728 804.667 726.667 808.167 726 812.5C725.667 814.667 725.333 816.833 725 819C726.667 818.5 728.333 818 730 817.5C733.333 816.5 735.333 815.5 736 814.5C736.667 813.5 737.333 813.167 738 813.5C738.667 813.833 739.833 812.833 741.5 810.5C743.167 808.167 743.667 803.667 743 797C742.333 790.333 741 785.333 739 782C737 778.667 735.667 777 735 777C734.667 777 734.333 777 734 777C734 776.5 734 776 734 775.5C734 775 734 774.5 734 774ZM436.5 782C438.167 782 439.833 784 441.5 788C443.167 792 444.5 796 445.5 800C446.5 804 446.667 808.333 446 813C445.333 817.667 444.333 821 443 823C441.667 825 439.833 826.667 437.5 828C435.167 829.333 429 831.167 419 833.5C409 835.833 403.667 837.333 403 838C402.333 838.667 402 840.667 402 844C402 847.333 402.5 850.333 403.5 853C404.5 855.667 410.333 856 421 854C431.667 852 438.167 850.333 440.5 849C442.833 847.667 444.833 845.167 446.5 841.5C448.167 837.833 449.5 836 450.5 836C451.5 836 452.667 836.833 454 838.5C455.333 840.167 456.333 842.333 457 845C457.667 847.667 457.833 850.833 457.5 854.5C457.167 858.167 457.833 860.833 459.5 862.5C461.167 864.167 462.333 867.833 463 873.5C463.333 876.333 463.667 879.167 464 882C462.833 882 461.667 882 460.5 882C458.167 882 455.833 880.833 453.5 878.5C451.167 876.167 444.667 876 434 878C423.333 880 416.833 881.667 414.5 883C412.167 884.333 410.333 886.333 409 889C407.667 891.667 405.167 892.167 401.5 890.5C397.833 888.833 391.333 889.167 382 891.5C372.667 893.833 367.333 895.833 366 897.5C364.667 899.167 364 901.333 364 904C364 906.667 363.667 908.333 363 909C362.333 909.667 361.167 909.833 359.5 909.5C357.833 909.167 356.167 906.5 354.5 901.5C352.833 896.5 352.333 891.833 353 887.5C353.333 885.333 353.667 883.167 354 881C353.667 881 353.333 881 353 881C352.333 881 351.167 879.667 349.5 877C347.833 874.333 346.167 869.833 344.5 863.5C342.833 857.167 342.167 851.333 342.5 846C342.833 840.667 343.667 836.5 345 833.5C346.333 830.5 348.833 827.667 352.5 825C356.167 822.333 359.5 820.667 362.5 820C365.5 819.333 368.667 819.333 372 820C375.333 820.667 378.833 822.167 382.5 824.5C384.333 825.667 386.167 826.833 388 828C388.833 825.333 389.667 822.667 390.5 820C392.167 814.667 395.333 811.167 400 809.5C404.667 807.833 409.667 806.667 415 806C420.333 805.333 424.167 804.333 426.5 803C428.833 801.667 430.5 799.833 431.5 797.5C432.5 795.167 432.833 792.333 432.5 789C432.167 785.667 432.333 783.667 433 783C433.667 782.333 434.833 782 436.5 782ZM587.5 796.5C589.167 797.5 590.667 801.167 592 807.5C593.333 813.833 594.833 817.833 596.5 819.5C598.167 821.167 599.667 824.333 601 829C602.333 833.667 601.833 836.5 599.5 837.5C597.167 838.5 595.5 838.167 594.5 836.5C593.5 834.833 592 834 590 834C588 834 584.5 835.667 579.5 839C574.5 842.333 572.167 844.833 572.5 846.5C572.833 848.167 574.167 851.667 576.5 857C578.833 862.333 583.333 864.667 590 864C596.667 863.333 600.333 862.667 601 862C601.667 861.333 601.833 859.833 601.5 857.5C601.167 855.167 602.333 853.5 605 852.5C606.333 852 607.667 851.5 609 851C609.667 853.333 610.333 855.667 611 858C612.333 862.667 612.833 866 612.5 868C612.167 870 613.167 872.5 615.5 875.5C617.833 878.5 618.667 881.167 618 883.5C617.333 885.833 615.667 886.667 613 886C610.333 885.333 608.667 884.5 608 883.5C607.333 882.5 604.667 882 600 882C595.333 882 589 882.333 581 883C573 883.667 568.333 884.5 567 885.5C565.667 886.5 564.833 887.667 564.5 889C564.167 890.333 563.333 891 562 891C560.667 891 558.833 890.167 556.5 888.5C554.167 886.833 547.333 886.167 536 886.5C524.667 886.833 518.5 888.667 517.5 892C516.5 895.333 515 897 513 897C511 897 508.833 894.333 506.5 889C504.167 883.667 503.167 879.667 503.5 877C503.833 874.333 502.833 871.667 500.5 869C498.167 866.333 496.667 862.833 496 858.5C495.333 854.167 496 851.667 498 851C500 850.333 501.833 850.667 503.5 852C505.167 853.333 506.833 853.167 508.5 851.5C510.167 849.833 514.333 847.333 521 844C527.667 840.667 531.833 838 533.5 836C535.167 834 536.167 831.833 536.5 829.5C536.833 827.167 539 826.167 543 826.5C547 826.833 551.333 825.667 556 823C560.667 820.333 563 818.667 563 818C563 817.333 565.5 815.667 570.5 813C575.5 810.333 578.5 807.167 579.5 803.5C580.5 799.833 581.667 797.5 583 796.5C584.333 795.5 585.833 795.5 587.5 796.5ZM196 815C196.5 816.167 197 817.333 197.5 818.5C198.5 820.833 201.667 824.5 207 829.5C212.333 834.5 215.833 839 217.5 843C219.167 847 220.167 850.833 220.5 854.5C220.667 856.333 220.833 858.167 221 860C219.667 856.667 218.333 853.333 217 850C214.333 843.333 210.5 837.5 205.5 832.5C200.5 827.5 197.667 823.333 197 820C196.667 818.333 196.333 816.667 196 815ZM744 832C743.5 833.833 743 835.667 742.5 837.5C741.5 841.167 739.667 843.667 737 845C735.667 845.667 734.333 846.333 733 847C733 846.5 733 846 733 845.5C733 844.5 734 843.5 736 842.5C738 841.5 739.833 839.5 741.5 836.5C742.333 835 743.167 833.5 744 832ZM371.5 845C367.833 845.667 364.833 846.5 362.5 847.5C360.167 848.5 358.5 849.667 357.5 851C356.5 852.333 356 854.333 356 857C356 859.667 356.833 862.167 358.5 864.5C360.167 866.833 366 867 376 865C386 863 391 860.833 391 858.5C391 856.167 390.333 853.5 389 850.5C387.667 847.5 385.333 845.667 382 845C378.667 844.333 375.167 844.333 371.5 845ZM731 847C731.667 847 732.167 847.667 732.5 849C732.833 850.333 731.667 852.333 729 855C726.333 857.667 724.333 861.5 723 866.5C721.667 871.5 720.667 874.167 720 874.5C719.667 874.667 719.333 874.833 719 875C719.333 873.167 719.667 871.333 720 869.5C720.667 865.833 721.333 863.833 722 863.5C722.667 863.167 722.833 862.333 722.5 861C722.167 859.667 723.333 857 726 853C728.667 849 730.333 847 731 847ZM528 852C527.667 852.667 527.333 853.333 527 854C527.667 853.833 528.333 853.667 529 853.5C530.333 853.167 531.5 853.5 532.5 854.5C533 855 533.5 855.5 534 856C534.167 855.5 534.333 855 534.5 854.5C534.833 853.5 534 852.5 532 851.5C531 851 530 850.5 529 850C528.667 850.667 528.333 851.333 528 852ZM555.5 854.5C553.833 856.167 552.333 857 551 857C549.667 857 548.167 857.833 546.5 859.5C544.833 861.167 542.833 862.333 540.5 863C538.167 863.667 536.5 864.833 535.5 866.5C535 867.333 534.5 868.167 534 869C539 868.667 544 868.333 549 868C554 867.667 559 867.333 564 867C563.833 865.333 563.667 863.667 563.5 862C563.167 858.667 562.167 856.167 560.5 854.5C559.667 853.667 558.833 852.833 558 852C557.167 852.833 556.333 853.667 555.5 854.5ZM211 863C211 864.667 211 866.333 211 868C211 871.333 209.833 875.5 207.5 880.5C205.167 885.5 204 890.5 204 895.5C204 900.5 205.5 905.167 208.5 909.5C211.5 913.833 213.833 916.167 215.5 916.5C216.333 916.667 217.167 916.833 218 917C218 914.5 218 912 218 909.5C218 904.5 217.167 900.5 215.5 897.5C213.833 894.5 213 892.667 213 892C213 891.667 213 891.333 213 891C213.333 891.167 213.667 891.333 214 891.5C214.667 891.833 215.833 893.833 217.5 897.5C219.167 901.167 220.5 906.5 221.5 913.5C222 917 222.5 920.5 223 924C221.5 923.5 220 923 218.5 922.5C215.5 921.5 212.5 919.667 209.5 917C206.5 914.333 205 912.333 205 911C205 909.667 204.333 908.5 203 907.5C201.667 906.5 200.833 905.167 200.5 903.5C200.167 901.833 200.167 898.833 200.5 894.5C200.833 890.167 202.333 885.667 205 881C207.667 876.333 209.333 872.167 210 868.5C210.333 866.667 210.667 864.833 211 863ZM539.5 872.5C537.833 872.833 537 873.5 537 874.5C537 875.5 537.833 876.333 539.5 877C541.167 877.667 542.5 877.333 543.5 876C544.5 874.667 545 873.667 545 873C545 872.667 545 872.333 545 872C544.5 872 544 872 543.5 872C542.5 872 541.167 872.167 539.5 872.5ZM370 878.5C370.667 879.5 370.667 882 370 886C369.667 888 369.333 890 369 892C369.5 892 370 892 370.5 892C371.5 892 372.833 889.667 374.5 885C375.333 882.667 376.167 880.333 377 878C375.667 877.833 374.333 877.667 373 877.5C371.667 877.333 370.333 877.167 369 877C369.333 877.5 369.667 878 370 878.5ZM730 886C731.5 888.833 733 891.667 734.5 894.5C737.5 900.167 739 905.667 739 911C739 916.333 738.333 920.333 737 923C735.667 925.667 734.5 927.167 733.5 927.5C733 927.667 732.5 927.833 732 928C732.167 928.333 732.333 928.667 732.5 929C732.833 929.667 731 931.333 727 934C723 936.667 720.333 938 719 938C718.333 938 717.667 938 717 938C717.5 934.667 718 931.333 718.5 928C719.5 921.333 720.667 916.5 722 913.5C722.667 912 723.333 910.5 724 909C723.5 911 723 913 722.5 915C721.5 919 721.167 922.833 721.5 926.5C721.833 930.167 722.5 932 723.5 932C724.5 932 726.167 931 728.5 929C730.833 927 732.833 924.333 734.5 921C736.167 917.667 736.833 913.833 736.5 909.5C736.167 905.167 735 901 733 897C731 893 730 890.167 730 888.5C730 887.667 730 886.833 730 886ZM466 900C467.333 900 468.667 900.833 470 902.5C471.333 904.167 472.167 907.167 472.5 911.5C472.833 915.833 474.333 919.833 477 923.5C479.667 927.167 481.167 930.333 481.5 933C481.833 935.667 480.333 937.333 477 938C473.667 938.667 471.667 938.667 471 938C470.333 937.333 468.5 937 465.5 937C462.5 937 456.833 938.667 448.5 942C440.167 945.333 435.833 947.667 435.5 949C435.167 950.333 436.333 954.5 439 961.5C441.667 968.5 443.5 972.167 444.5 972.5C445.5 972.833 447 972.333 449 971C451 969.667 454.667 968.333 460 967C465.333 965.667 469.333 964.333 472 963C474.667 961.667 476.5 959.667 477.5 957C478.5 954.333 480.667 952.667 484 952C487.333 951.333 489.5 952.333 490.5 955C491.5 957.667 492 960.667 492 964C492 967.333 493.333 970.333 496 973C498.667 975.667 500.167 978.5 500.5 981.5C500.833 984.5 500.5 986.5 499.5 987.5C498.5 988.5 497.333 989 496 989C494.667 989 493.333 988.333 492 987C490.667 985.667 488.833 984.833 486.5 984.5C484.167 984.167 479.333 985.167 472 987.5C464.667 989.833 459.167 991.833 455.5 993.5C451.833 995.167 449.333 997.5 448 1000.5C447.333 1002 446.667 1003.5 446 1005C445.167 1004.5 444.333 1004 443.5 1003.5C441.833 1002.5 439.5 1002 436.5 1002C433.5 1002 431.333 1002.5 430 1003.5C428.667 1004.5 425.333 1005.67 420 1007C414.667 1008.33 410.833 1010 408.5 1012C406.167 1014 404.833 1016.17 404.5 1018.5C404.167 1020.83 403.5 1022.17 402.5 1022.5C402 1022.67 401.5 1022.83 401 1023C400.833 1022.5 400.667 1022 400.5 1021.5C400.333 1021 400.167 1020.5 400 1020C399.667 1020.5 399.333 1021 399 1021.5C398.667 1022 398.333 1022.5 398 1023C397.5 1022 397 1021 396.5 1020C395.5 1018 394.667 1017 394 1017C393.667 1017 393.333 1017 393 1017C393 1015.17 393 1013.33 393 1011.5C393 1007.83 392.167 1005.17 390.5 1003.5C388.833 1001.83 387.333 999 386 995C385.333 993 384.667 991 384 989C385.833 988.667 387.667 988.333 389.5 988C393.167 987.333 395.333 987.333 396 988C396.667 988.667 398.167 989 400.5 989C402.833 989 408.167 987.333 416.5 984C424.833 980.667 429.167 978.167 429.5 976.5C429.833 974.833 429.5 972.5 428.5 969.5C427.5 966.5 426.333 963.333 425 960C423.667 956.667 422.167 954.833 420.5 954.5C418.833 954.167 414.167 955.333 406.5 958C398.833 960.667 393.667 963 391 965C388.333 967 386.667 968.833 386 970.5C385.333 972.167 383.833 973.333 381.5 974C379.167 974.667 377.5 974 376.5 972C375.5 970 374.833 967 374.5 963C374.167 959 372.667 955 370 951C367.333 947 366 943.667 366 941C366 938.333 367 936.667 369 936C371 935.333 372.833 936 374.5 938C376.167 940 377.667 941.167 379 941.5C380.333 941.833 381.667 941.5 383 940.5C384.333 939.5 387.667 938.5 393 937.5C398.333 936.5 402.667 935 406 933C409.333 931 411.5 928.667 412.5 926C413.5 923.333 415.833 922.5 419.5 923.5C423.167 924.5 430.667 923 442 919C453.333 915 459.167 911.333 459.5 908C459.833 904.667 460.667 902.5 462 901.5C463.333 900.5 464.667 900 466 900ZM403.5 938.5C403.667 939 403.833 939.5 404 940C403.5 940 403 940 402.5 940C402 940 401.5 940 401 940C401 940.333 401 940.667 401 941C401 941.667 401.5 942.167 402.5 942.5C403.5 942.833 404.333 942.833 405 942.5C405.667 942.167 405.833 941.333 405.5 940C405.333 939.333 405.167 938.667 405 938C405.667 937.833 406.333 937.667 407 937.5C407.667 937.333 408.333 937.167 409 937C408 937 407 937 406 937C405 937 404 937 403 937C403.167 937.5 403.333 938 403.5 938.5ZM390.5 945.5C390.167 947.167 390.333 948.333 391 949C391.667 949.667 393.5 949.833 396.5 949.5C399.5 949.167 401 948.667 401 948C401 947.667 401 947.333 401 947C401.667 947.167 402.333 947.333 403 947.5C404.333 947.833 405.167 947.5 405.5 946.5C405.833 945.5 406.5 945 407.5 945C408 945 408.5 945 409 945C406 944.667 403 944.333 400 944C394 943.333 390.833 943.833 390.5 945.5ZM384 950.5C383.667 951.333 383.333 952.167 383 953C384.333 953.5 385.667 954 387 954.5C388.333 955 389.667 955.5 391 956C391 955 391 954 391 953C391 951 390 949.667 388 949C386 948.333 384.667 948.833 384 950.5ZM414.5 997.5C414.333 998.333 414.167 999.167 414 1000C413.167 999.833 412.333 999.667 411.5 999.5C409.833 999.167 409 998.667 409 998C409 997.667 409 997.333 409 997C407.833 997.333 406.667 997.667 405.5 998C403.167 998.667 401.5 998.667 400.5 998C400 997.667 399.5 997.333 399 997C398.833 997.667 398.667 998.333 398.5 999C398.333 999.667 398.167 1000.33 398 1001C398.333 1001 398.667 1001 399 1001C399.333 1001 399.667 1001 400 1001C400 1001.67 400 1002.33 400 1003C400 1003.67 400 1004.33 400 1005C400.333 1004.83 400.667 1004.67 401 1004.5C401.333 1004.33 401.667 1004.17 402 1004C401.833 1004.83 401.667 1005.67 401.5 1006.5C401.333 1007.33 401.167 1008.17 401 1009C402 1009 403 1009 404 1009C406 1009 408 1008.5 410 1007.5C412 1006.5 413 1005.33 413 1004C413 1002.67 414 1001.83 416 1001.5C417 1001.33 418 1001.17 419 1001C418.333 1000 417.667 999 417 998C416.333 997 415.667 996 415 995C414.833 995.833 414.667 996.667 414.5 997.5ZM257 1004C258.333 1004.67 259.167 1005.67 259.5 1007C259.833 1008.33 259.5 1009.5 258.5 1010.5C257.5 1011.5 256.333 1012 255 1012C253.667 1012 252.667 1010.83 252 1008.5C251.333 1006.17 251.667 1004.67 253 1004C254.333 1003.33 255.667 1003.33 257 1004ZM699.5 1010.5C701.167 1010.83 702 1012 702 1014C702 1015 702 1016 702 1017C700.833 1017 699.667 1017 698.5 1017C697.333 1017 696.167 1017 695 1017C695 1016 695 1015 695 1014C695 1012 695.333 1010.83 696 1010.5C696.667 1010.17 697.833 1010.17 699.5 1010.5ZM506 1016.5C512 1016.83 516.5 1018.33 519.5 1021C522.5 1023.67 524.833 1026.5 526.5 1029.5C528.167 1032.5 529.333 1035.33 530 1038C530.667 1040.67 530.667 1043.83 530 1047.5C529.333 1051.17 527.667 1054.67 525 1058C522.333 1061.33 521 1063.5 521 1064.5C521 1065.5 520 1066.5 518 1067.5C516 1068.5 514.667 1069.67 514 1071C513.333 1072.33 512.5 1073 511.5 1073C511 1073 510.5 1073 510 1073C510 1073.33 510 1073.67 510 1074C510 1074.67 509.167 1075.17 507.5 1075.5C505.833 1075.83 504.333 1076.83 503 1078.5C501.667 1080.17 500 1081.33 498 1082C496 1082.67 494.167 1084.67 492.5 1088C490.833 1091.33 488.167 1092.33 484.5 1091C480.833 1089.67 478 1089.5 476 1090.5C474 1091.5 469.667 1092.33 463 1093C456.333 1093.67 450.667 1093.5 446 1092.5C441.333 1091.5 438.167 1090.17 436.5 1088.5C434.833 1086.83 433.667 1086.17 433 1086.5C432.333 1086.83 430.667 1085.17 428 1081.5C425.333 1077.83 423.833 1075 423.5 1073C423.167 1071 423.333 1069.5 424 1068.5C424.333 1068 424.667 1067.5 425 1067C424.167 1066.67 423.333 1066.33 422.5 1066C420.833 1065.33 419.333 1063.33 418 1060C416.667 1056.67 419 1053.33 425 1050C431 1046.67 435.167 1044.83 437.5 1044.5C439.833 1044.17 441.333 1044.83 442 1046.5C442.667 1048.17 442 1050.17 440 1052.5C438 1054.83 436.667 1058.33 436 1063C435.333 1067.67 436.167 1071.5 438.5 1074.5C440.833 1077.5 443.167 1079 445.5 1079C447.833 1079 452.5 1077.83 459.5 1075.5C466.5 1073.17 470.833 1070.33 472.5 1067C474.167 1063.67 476.667 1062.5 480 1063.5C483.333 1064.5 488.5 1063 495.5 1059C502.5 1055 507.167 1051.17 509.5 1047.5C511.833 1043.83 512.833 1041 512.5 1039C512.167 1037 511.167 1034.83 509.5 1032.5C507.833 1030.17 505.333 1028.67 502 1028C498.667 1027.33 494.333 1027.67 489 1029C486.333 1029.67 483.667 1030.33 481 1031C481 1029.83 481 1028.67 481 1027.5C481 1025.17 483.667 1022.67 489 1020C494.333 1017.33 500 1016.17 506 1016.5ZM258 1022.5C260 1022.83 261.5 1023.83 262.5 1025.5C263.5 1027.17 263.667 1029 263 1031C262.333 1033 261.333 1034.33 260 1035C258.667 1035.67 257.167 1035.83 255.5 1035.5C253.833 1035.17 252.333 1034.17 251 1032.5C249.667 1030.83 249.167 1029.17 249.5 1027.5C249.833 1025.83 250.833 1024.5 252.5 1023.5C254.167 1022.5 256 1022.17 258 1022.5ZM698 1027.5C700 1027.83 701.5 1028.83 702.5 1030.5C703.5 1032.17 703.833 1033.67 703.5 1035C703.167 1036.33 702.167 1037.67 700.5 1039C698.833 1040.33 696.667 1040.33 694 1039C691.333 1037.67 690 1036 690 1034C690 1032 690.833 1030.33 692.5 1029C694.167 1027.67 696 1027.17 698 1027.5ZM258 1047.5C259.333 1047.83 260.333 1048.67 261 1050C261.667 1051.33 261.333 1052.67 260 1054C258.667 1055.33 257 1055.5 255 1054.5C254 1054 253 1053.5 252 1053C252.667 1052 253.333 1051 254 1050C255.333 1048 256.667 1047.17 258 1047.5ZM698 1053C699.333 1053.67 700 1054.67 700 1056C700 1057.33 698.833 1058.33 696.5 1059C695.333 1059.33 694.167 1059.67 693 1060C692.833 1059.17 692.667 1058.33 692.5 1057.5C692.167 1055.83 692.667 1054.5 694 1053.5C695.333 1052.5 696.667 1052.33 698 1053ZM429.5 1055.5C427.833 1056.5 427.333 1058 428 1060C428.333 1061 428.667 1062 429 1063C429.5 1062.83 430 1062.67 430.5 1062.5C431.5 1062.17 432 1060.67 432 1058C432 1056.67 432 1055.33 432 1054C431.167 1054.5 430.333 1055 429.5 1055.5ZM604 1061C607.333 1062.33 609.333 1064.67 610 1068C610.667 1071.33 609.833 1074.33 607.5 1077C605.167 1079.67 602.333 1081 599 1081C595.667 1081 593.167 1079.83 591.5 1077.5C589.833 1075.17 589.167 1072.5 589.5 1069.5C589.833 1066.5 590.5 1064.33 591.5 1063C592.5 1061.67 594 1060.67 596 1060C598 1059.33 600.667 1059.67 604 1061ZM359 1064.5C363 1064.83 365.667 1065.83 367 1067.5C368.333 1069.17 368.833 1071.83 368.5 1075.5C368.167 1079.17 367.167 1081.67 365.5 1083C363.833 1084.33 361.167 1085 357.5 1085C353.833 1085 351.333 1084.5 350 1083.5C348.667 1082.5 347.833 1080 347.5 1076C347.167 1072 348 1069 350 1067C352 1065 355 1064.17 359 1064.5ZM273 1067C274 1067.33 275 1067.67 276 1068C277 1068.33 278 1068.67 279 1069C278.667 1070 278.333 1071 278 1072C277.667 1073 277.333 1074 277 1075C276 1074.67 275 1074.33 274 1074C273 1073.67 272 1073.33 271 1073C271.333 1072 271.667 1071 272 1070C272.333 1069 272.667 1068 273 1067ZM294 1068.5C296 1069.5 296.667 1071 296 1073C295.333 1075 293.833 1075.67 291.5 1075C289.167 1074.33 288 1073.33 288 1072C288 1070.67 288.5 1069.5 289.5 1068.5C290.5 1067.5 292 1067.5 294 1068.5ZM313.5 1068.5C315.167 1069.5 316 1070.67 316 1072C316 1073.33 315.5 1074.33 314.5 1075C313.5 1075.67 312.167 1075.67 310.5 1075C308.833 1074.33 308 1073.17 308 1071.5C308 1069.83 308.5 1068.67 309.5 1068C310.5 1067.33 311.833 1067.5 313.5 1068.5ZM255 1068C256 1068.5 257 1069 258 1069.5C260 1070.5 261 1071.67 261 1073C261 1074.33 260.5 1075.33 259.5 1076C258.5 1076.67 257 1076.5 255 1075.5C254 1075 253 1074.5 252 1074C252.5 1073 253 1072 253.5 1071C254 1070 254.5 1069 255 1068ZM337 1068.5C339 1068.83 340.167 1069.67 340.5 1071C340.833 1072.33 340.667 1073.5 340 1074.5C339.333 1075.5 337.833 1075.67 335.5 1075C334.333 1074.67 333.167 1074.33 332 1074C332.333 1073 332.667 1072 333 1071C333.667 1069 335 1068.17 337 1068.5ZM623.5 1069C624.5 1069 625.333 1069.5 626 1070.5C626.667 1071.5 626.5 1072.83 625.5 1074.5C624.5 1076.17 623.167 1076.67 621.5 1076C619.833 1075.33 619 1074.33 619 1073C619 1071.67 619.5 1070.67 620.5 1070C621.5 1069.33 622.5 1069 623.5 1069ZM640.5 1069C641.5 1069 642.5 1069.67 643.5 1071C644.5 1072.33 644.5 1073.67 643.5 1075C642.5 1076.33 641 1076.5 639 1075.5C638 1075 637 1074.5 636 1074C636.5 1073.17 637 1072.33 637.5 1071.5C638.5 1069.83 639.5 1069 640.5 1069ZM659 1071.5C660 1071.67 661 1071.83 662 1072C661.667 1073.17 661.333 1074.33 661 1075.5C660.667 1076.67 660.333 1077.83 660 1079C659 1078.67 658 1078.33 657 1078C656 1077.67 655 1077.33 654 1077C654.333 1076 654.667 1075 655 1074C655.667 1072 657 1071.17 659 1071.5ZM673 1072C674 1072.17 675 1072.33 676 1072.5C677 1072.67 678 1072.83 679 1073C678.667 1074 678.333 1075 678 1076C677.333 1078 676 1078.83 674 1078.5C672 1078.17 671 1077.17 671 1075.5C671 1074.67 671 1073.83 671 1073C671.333 1073.17 671.667 1073.33 672 1073.5C672.333 1073.67 672.667 1073.83 673 1074C673 1073.67 673 1073.33 673 1073C673 1072.67 673 1072.33 673 1072ZM696 1073C697.333 1073.67 697.833 1075.17 697.5 1077.5C697.333 1078.67 697.167 1079.83 697 1081C696.833 1080.5 696.667 1080 696.5 1079.5C696.167 1078.5 695 1078 693 1078C692 1078 691 1078 690 1078C690.167 1077.17 690.333 1076.33 690.5 1075.5C690.833 1073.83 691.5 1072.83 692.5 1072.5C693.5 1072.17 694.667 1072.33 696 1073ZM468.5 1080C468.333 1081 468.167 1082 468 1083C466.5 1082.67 465 1082.33 463.5 1082C460.5 1081.33 458.833 1081.67 458.5 1083C458.167 1084.33 458.333 1085.33 459 1086C459.667 1086.67 462 1086.67 466 1086C470 1085.33 472.333 1084.17 473 1082.5C473.333 1081.67 473.667 1080.83 474 1080C473.667 1080.17 473.333 1080.33 473 1080.5C472.667 1080.67 472.333 1080.83 472 1081C471.833 1080.33 471.667 1079.67 471.5 1079C471.167 1077.67 470.667 1077 470 1077C469.333 1077 468.833 1078 468.5 1080ZM452.5 1089C452.667 1089.67 452.833 1090.33 453 1091C454.167 1090.67 455.333 1090.33 456.5 1090C457.667 1089.67 458.833 1089.33 460 1089C459.833 1088.67 459.667 1088.33 459.5 1088C459.167 1087.33 457.833 1087 455.5 1087C454.333 1087 453.167 1087 452 1087C452.167 1087.67 452.333 1088.33 452.5 1089ZM578 1088C580 1088.67 581 1089.5 581 1090.5C581 1091.5 580.333 1092.5 579 1093.5C577.667 1094.5 576.5 1094.67 575.5 1094C575 1093.67 574.5 1093.33 574 1093C574.5 1092.5 575 1092 575.5 1091.5C576 1091 576.5 1090.5 577 1090C576.333 1090.17 575.667 1090.33 575 1090.5C574.333 1090.67 573.667 1090.83 573 1091C573.333 1090.33 573.667 1089.67 574 1089C574.667 1087.67 576 1087.33 578 1088ZM377 1091C378 1091.5 379 1092 380 1092.5C382 1093.5 383 1094.5 383 1095.5C383 1096.5 382.333 1097.5 381 1098.5C379.667 1099.5 378.333 1099.67 377 1099C375.667 1098.33 375.333 1096.83 376 1094.5C376.333 1093.33 376.667 1092.17 377 1091ZM393 1102C394 1102.5 395 1103 396 1103.5C397 1104 398 1104.5 399 1105C398.333 1106 397.667 1107 397 1108C395.667 1110 394.333 1110.67 393 1110C391.667 1109.33 391.333 1107.83 392 1105.5C392.333 1104.33 392.667 1103.17 393 1102ZM541.5 1107.5C542.333 1107.67 543.167 1107.83 544 1108C543.833 1108.5 543.667 1109 543.5 1109.5C543.167 1110.5 543.333 1111.33 544 1112C544.333 1112.33 544.667 1112.67 545 1113C543.667 1113 542.333 1113 541 1113C539.667 1113 538.333 1113 537 1113C537.333 1112 537.667 1111 538 1110C538.667 1108 539.833 1107.17 541.5 1107.5ZM408 1111C409 1111.33 410 1111.67 411 1112C413 1112.67 413.833 1113.83 413.5 1115.5C413.167 1117.17 412.167 1118.17 410.5 1118.5C408.833 1118.83 407.667 1118.67 407 1118C406.333 1117.33 406.333 1116 407 1114C407.333 1113 407.667 1112 408 1111ZM524 1117.5C526 1118.5 526.667 1119.83 526 1121.5C525.333 1123.17 524.333 1124 523 1124C521.667 1124 520.5 1123.5 519.5 1122.5C518.5 1121.5 518.5 1120.17 519.5 1118.5C520.5 1116.83 522 1116.5 524 1117.5ZM429.5 1118C431.167 1118.67 431.667 1120 431 1122C430.333 1124 429 1124.83 427 1124.5C425 1124.17 424 1123.17 424 1121.5C424 1119.83 424.5 1118.67 425.5 1118C426.5 1117.33 427.833 1117.33 429.5 1118ZM450 1122.5C451.333 1123.5 452 1124.5 452 1125.5C452 1126.5 451 1127.5 449 1128.5C447 1129.5 445.667 1129.83 445 1129.5C444.333 1129.17 444 1128 444 1126C444 1124 444.667 1122.67 446 1122C447.333 1121.33 448.667 1121.5 450 1122.5ZM504.5 1122.5C506.167 1123.5 506.833 1124.83 506.5 1126.5C506.167 1128.17 504.833 1129 502.5 1129C501.333 1129 500.167 1129 499 1129C499 1128 499 1127 499 1126C499 1124 499.5 1122.67 500.5 1122C501.5 1121.33 502.833 1121.5 504.5 1122.5ZM464 1125C465 1125.67 466 1126.33 467 1127C469 1128.33 469.667 1129.67 469 1131C468.333 1132.33 467 1133 465 1133C463 1133 461.833 1132.67 461.5 1132C461.167 1131.33 461.5 1130 462.5 1128C463 1127 463.5 1126 464 1125ZM483 1126C484.333 1126.33 485.667 1126.67 487 1127C488.333 1127.33 489.667 1127.67 491 1128C490.5 1128.83 490 1129.67 489.5 1130.5C488.5 1132.17 487.167 1133 485.5 1133C484.667 1133 483.833 1133 483 1133C483 1131.83 483 1130.67 483 1129.5C483 1128.33 483 1127.17 483 1126Z" fill="#000000" fill-rule="nonzero" opacity="1" stroke="none" vectornator:layerName="Curve 1"/>
</g>
</svg>
